999
dxfrw 0.5.10
0
SECTION
2
HEADER
9
$ACADVER
1
AC1021
9
$HANDSEED
5
20000
9
$DWGCODEPAGE
3
ANSI_1252
9
$INSBASE
10
0
20
0
30
0
9
$EXTMIN
10
0.766814029905
20
0
30
0
9
$EXTMAX
10
153.23318597
20
170
30
0
9
$LIMMIN
10
0
20
0
9
$LIMMAX
10
420
20
297
9
$ORTHOMODE
70
0
9
$LTSCALE
40
1
9
$TEXTSTYLE
7
STANDARD
9
$CLAYER
8
0
9
$DIMASZ
40
2.5
9
$DIMLFAC
40
1
9
$DIMSCALE
40
1
9
$DIMEXO
40
0.625
9
$DIMEXE
40
1.25
9
$DIMTXT
40
2.5
9
$DIMTSZ
40
0
9
$DIMAUNIT
70
0
9
$DIMADEC
70
0
9
$DIMLUNIT
70
2
9
$DIMSTYLE
2
STANDARD
9
$DIMGAP
40
0.625
9
$DIMTIH
70
0
9
$LUNITS
70
2
9
$LUPREC
70
4
9
$AUNITS
70
0
9
$AUPREC
70
2
9
$SPLINESEGS
70
8
9
$GRIDMODE
70
1
9
$SNAPSTYLE
70
0
9
$PINSBASE
10
0
20
0
30
0
9
$PLIMMIN
10
0
20
0
9
$PLIMMAX
10
210
20
297
9
$INSUNITS
70
4
9
$PSVPSCALE
40
1
0
ENDSEC
0
SECTION
2
CLASSES
0
ENDSEC
0
SECTION
2
TABLES
0
TABLE
2
VPORT
5
8
330
0
100
AcDbSymbolTable
70
1
0
VPORT
5
31
330
2
100
AcDbSymbolTableRecord
100
AcDbViewportTableRecord
2
*ACTIVE
70
0
10
0
20
0
11
1
21
1
12
148.90625
22
84.53125
13
0
23
0
14
10
24
10
15
10
25
10
16
0
26
0
36
1
17
0
27
0
37
0
40
190
41
1.95394736842
42
50
43
0
44
0
50
0
51
0
71
0
72
100
73
1
74
3
75
0
76
1
77
0
78
0
281
0
65
1
110
0
120
0
130
0
111
1
121
0
131
0
112
0
122
1
132
0
79
0
146
0
348
10020
60
7
61
5
292
1
282
1
141
0
142
0
63
250
421
3358443
0
ENDTAB
0
TABLE
2
LTYPE
5
5
330
0
100
AcDbSymbolTable
70
4
0
LTYPE
5
14
330
5
100
AcDbSymbolTableRecord
100
AcDbLinetypeTableRecord
2
ByBlock
70
0
3

72
65
73
0
40
0
0
LTYPE
5
15
330
5
100
AcDbSymbolTableRecord
100
AcDbLinetypeTableRecord
2
ByLayer
70
0
3

72
65
73
0
40
0
0
LTYPE
5
16
330
5
100
AcDbSymbolTableRecord
100
AcDbLinetypeTableRecord
2
Continuous
70
0
3
Solid line
72
65
73
0
40
0
0
LTYPE
5
32
330
5
100
AcDbSymbolTableRecord
100
AcDbLinetypeTableRecord
2
DOT
70
0
3
Dot . . . . . . . . . . . . . . . . . . . . . .
72
65
73
2
40
6.35
49
0
74
0
49
-6.35
74
0
0
LTYPE
5
33
330
5
100
AcDbSymbolTableRecord
100
AcDbLinetypeTableRecord
2
DOT2
70
0
3
Dot (.5x) .....................................
72
65
73
2
40
3.175
49
0
74
0
49
-3.175
74
0
0
LTYPE
5
34
330
5
100
AcDbSymbolTableRecord
100
AcDbLinetypeTableRecord
2
DOTX2
70
0
3
Dot (2x) .  .  .  .  .  .  .  .  .  .  .  .  .
72
65
73
2
40
12.7
49
0
74
0
49
-12.7
74
0
0
LTYPE
5
35
330
5
100
AcDbSymbolTableRecord
100
AcDbLinetypeTableRecord
2
DASHED
70
0
3
Dot . . . . . . . . . . . . . . . . . . . . . .
72
65
73
2
40
19.05
49
12.7
74
0
49
-6.35
74
0
0
LTYPE
5
36
330
5
100
AcDbSymbolTableRecord
100
AcDbLinetypeTableRecord
2
DASHED2
70
0
3
Dashed (.5x) _ _ _ _ _ _ _ _ _ _ _ _ _ _ _ _ _
72
65
73
2
40
9.525
49
6.35
74
0
49
-3.175
74
0
0
LTYPE
5
37
330
5
100
AcDbSymbolTableRecord
100
AcDbLinetypeTableRecord
2
DASHEDX2
70
0
3
Dashed (2x) ____  ____  ____  ____  ____  ___
72
65
73
2
40
38.1
49
25.4
74
0
49
-12.7
74
0
0
LTYPE
5
38
330
5
100
AcDbSymbolTableRecord
100
AcDbLinetypeTableRecord
2
DASHDOT
70
0
3
Dash dot __ . __ . __ . __ . __ . __ . __ . __
72
65
73
4
40
25.4
49
12.7
74
0
49
-6.35
74
0
49
0
74
0
49
-6.35
74
0
0
LTYPE
5
39
330
5
100
AcDbSymbolTableRecord
100
AcDbLinetypeTableRecord
2
DASHDOT2
70
0
3
Dash dot (.5x) _._._._._._._._._._._._._._._.
72
65
73
4
40
12.7
49
6.35
74
0
49
-3.175
74
0
49
0
74
0
49
-3.175
74
0
0
LTYPE
5
3A
330
5
100
AcDbSymbolTableRecord
100
AcDbLinetypeTableRecord
2
DASHDOTX2
70
0
3
Dash dot (2x) ____  .  ____  .  ____  .  ___
72
65
73
4
40
50.8
49
25.4
74
0
49
-12.7
74
0
49
0
74
0
49
-12.7
74
0
0
LTYPE
5
3B
330
5
100
AcDbSymbolTableRecord
100
AcDbLinetypeTableRecord
2
DIVIDE
70
0
3
Divide ____ . . ____ . . ____ . . ____ . . ____
72
65
73
6
40
31.75
49
12.7
74
0
49
-6.35
74
0
49
0
74
0
49
-6.35
74
0
49
0
74
0
49
-6.35
74
0
0
LTYPE
5
3C
330
5
100
AcDbSymbolTableRecord
100
AcDbLinetypeTableRecord
2
DIVIDE2
70
0
3
Divide (.5x) __..__..__..__..__..__..__..__.._
72
65
73
6
40
15.875
49
6.35
74
0
49
-3.175
74
0
49
0
74
0
49
-3.175
74
0
49
0
74
0
49
-3.175
74
0
0
LTYPE
5
3D
330
5
100
AcDbSymbolTableRecord
100
AcDbLinetypeTableRecord
2
DIVIDEX2
70
0
3
Divide (2x) ________  .  .  ________  .  .  _
72
65
73
6
40
63.5
49
25.4
74
0
49
-12.7
74
0
49
0
74
0
49
-12.7
74
0
49
0
74
0
49
-12.7
74
0
0
LTYPE
5
3E
330
5
100
AcDbSymbolTableRecord
100
AcDbLinetypeTableRecord
2
BORDER
70
0
3
Border __ __ . __ __ . __ __ . __ __ . __ __ .
72
65
73
6
40
44.45
49
12.7
74
0
49
-6.35
74
0
49
12.7
74
0
49
-6.35
74
0
49
0
74
0
49
-6.35
74
0
0
LTYPE
5
3F
330
5
100
AcDbSymbolTableRecord
100
AcDbLinetypeTableRecord
2
BORDER2
70
0
3
Border (.5x) __.__.__.__.__.__.__.__.__.__.__.
72
65
73
6
40
22.225
49
6.35
74
0
49
-3.175
74
0
49
6.35
74
0
49
-3.175
74
0
49
0
74
0
49
-3.175
74
0
0
LTYPE
5
40
330
5
100
AcDbSymbolTableRecord
100
AcDbLinetypeTableRecord
2
BORDERX2
70
0
3
Border (2x) ____  ____  .  ____  ____  .  ___
72
65
73
6
40
88.9
49
25.4
74
0
49
-12.7
74
0
49
25.4
74
0
49
-12.7
74
0
49
0
74
0
49
-12.7
74
0
0
LTYPE
5
41
330
5
100
AcDbSymbolTableRecord
100
AcDbLinetypeTableRecord
2
CENTER
70
0
3
Center ____ _ ____ _ ____ _ ____ _ ____ _ ____
72
65
73
4
40
50.8
49
31.75
74
0
49
-6.35
74
0
49
6.35
74
0
49
-6.35
74
0
0
LTYPE
5
42
330
5
100
AcDbSymbolTableRecord
100
AcDbLinetypeTableRecord
2
CENTER2
70
0
3
Center (.5x) ___ _ ___ _ ___ _ ___ _ ___ _ ___
72
65
73
4
40
28.575
49
19.05
74
0
49
-3.175
74
0
49
3.175
74
0
49
-3.175
74
0
0
LTYPE
5
43
330
5
100
AcDbSymbolTableRecord
100
AcDbLinetypeTableRecord
2
CENTERX2
70
0
3
Center (2x) ________  __  ________  __  _____
72
65
73
4
40
101.6
49
63.5
74
0
49
-12.7
74
0
49
12.7
74
0
49
-12.7
74
0
0
ENDTAB
0
TABLE
2
LAYER
5
2
330
0
100
AcDbSymbolTable
70
1
0
LAYER
5
10
330
2
100
AcDbSymbolTableRecord
100
AcDbLayerTableRecord
2
0
70
0
62
7
6
CONTINUOUS
370
0
390
F
0
ENDTAB
0
TABLE
2
STYLE
5
3
330
0
100
AcDbSymbolTable
70
3
0
STYLE
5
44
330
2
100
AcDbSymbolTableRecord
100
AcDbTextStyleTableRecord
2
Standard
70
0
40
0
41
1
50
0
71
0
42
1
3
txt
4

0
ENDTAB
0
TABLE
2
VIEW
5
6
330
0
100
AcDbSymbolTable
70
0
0
ENDTAB
0
TABLE
2
UCS
5
7
330
0
100
AcDbSymbolTable
70
0
0
ENDTAB
0
TABLE
2
APPID
5
9
330
0
100
AcDbSymbolTable
70
1
0
APPID
5
12
330
9
100
AcDbSymbolTableRecord
100
AcDbRegAppTableRecord
2
ACAD
70
0
0
ENDTAB
0
TABLE
2
DIMSTYLE
5
A
330
0
100
AcDbSymbolTable
70
1
100
AcDbDimStyleTable
71
1
0
DIMSTYLE
105
45
330
A
100
AcDbSymbolTableRecord
100
AcDbDimStyleTableRecord
2
Standard
70
0
40
1
41
2.5
42
0.625
43
0.38
44
1.25
45
0
46
0
47
0
48
0
140
2.5
141
0.09
142
0
143
25.4
144
1
145
0
146
1
147
0.625
148
0
71
0
72
0
73
0
74
1
75
0
76
0
77
0
78
0
79
0
170
0
171
2
172
0
173
0
174
0
175
0
176
0
177
0
178
0
179
0
271
4
272
4
273
2
274
2
275
0
276
0
277
2
278
46
279
0
280
0
281
0
282
0
283
1
284
0
285
0
286
0
288
0
289
3
340
Standard
341

371
-2
372
-2
0
ENDTAB
0
TABLE
2
BLOCK_RECORD
5
1
330
0
100
AcDbSymbolTable
70
2
0
BLOCK_RECORD
5
1F
330
1
100
AcDbSymbolTableRecord
100
AcDbBlockTableRecord
2
*Model_Space
70
0
280
1
281
0
0
BLOCK_RECORD
5
1E
330
1
100
AcDbSymbolTableRecord
100
AcDbBlockTableRecord
2
*Paper_Space
70
0
280
1
281
0
0
ENDTAB
0
ENDSEC
0
SECTION
2
BLOCKS
0
BLOCK
5
20
330
1F
100
AcDbEntity
8
0
100
AcDbBlockBegin
2
*Model_Space
70
0
10
0
20
0
30
0
3
*Model_Space
1

0
ENDBLK
5
21
330
1F
100
AcDbEntity
8
0
100
AcDbBlockEnd
0
BLOCK
5
1C
330
1B
100
AcDbEntity
8
0
100
AcDbBlockBegin
2
*Paper_Space
70
0
10
0
20
0
30
0
3
*Paper_Space
1

0
ENDBLK
5
1D
330
1F
100
AcDbEntity
8
0
100
AcDbBlockEnd
0
ENDSEC
0
SECTION
2
ENTITIES
0
CIRCLE
5
46
100
AcDbEntity
8
0
6
ByLayer
62
256
370
-1
100
AcDbCircle
10
110.75
20
26.5432852446
40
1.75
0
CIRCLE
5
47
100
AcDbEntity
8
0
6
ByLayer
62
256
370
-1
100
AcDbCircle
10
144.5
20
84.9999999998
40
1.75
0
CIRCLE
5
48
100
AcDbEntity
8
0
6
ByLayer
62
256
370
-1
100
AcDbCircle
10
110.75
20
143.456714755
40
1.75
0
CIRCLE
5
49
100
AcDbEntity
8
0
6
ByLayer
62
256
370
-1
100
AcDbCircle
10
43.25
20
143.456714755
40
1.75
0
CIRCLE
5
4A
100
AcDbEntity
8
0
6
ByLayer
62
256
370
-1
100
AcDbCircle
10
9.50000000004
20
85
40
1.75
0
CIRCLE
5
4B
100
AcDbEntity
8
0
6
ByLayer
62
256
370
-1
100
AcDbCircle
10
43.25
20
26.5432852446
40
1.75
0
CIRCLE
5
4C
100
AcDbEntity
8
0
6
ByLayer
62
256
370
-1
100
AcDbCircle
10
77
20
85
40
10
0
LINE
5
4D
100
AcDbEntity
8
0
6
ByLayer
62
256
370
-1
100
AcDbLine
10
71
20
7
11
83
21
7
0
LINE
5
4E
100
AcDbEntity
8
0
6
ByLayer
62
256
370
-1
100
AcDbLine
10
83
20
30
11
71
21
30
0
LINE
5
4F
100
AcDbEntity
8
0
6
ByLayer
62
256
370
-1
100
AcDbLine
10
71
20
30
11
71
21
7
0
LINE
5
50
100
AcDbEntity
8
0
6
ByLayer
62
256
370
-1
100
AcDbLine
10
83
20
7
11
83
21
30
0
CIRCLE
5
51
100
AcDbEntity
8
0
6
ByLayer
62
256
370
-1
100
AcDbCircle
10
77
20
4.35
40
1.5
0
CIRCLE
5
52
100
AcDbEntity
8
0
6
ByLayer
62
256
370
-1
100
AcDbCircle
10
77
20
32.65
40
1.5
0
LINE
5
53
100
AcDbEntity
8
0
6
ByLayer
62
256
370
-1
100
AcDbLine
10
141.549981495
20
40.8038475773
11
147.549981495
21
51.1961524227
0
LINE
5
54
100
AcDbEntity
8
0
6
ByLayer
62
256
370
-1
100
AcDbLine
10
127.631397208
20
62.6961524227
11
121.631397208
21
52.3038475773
0
LINE
5
55
100
AcDbEntity
8
0
6
ByLayer
62
256
370
-1
100
AcDbLine
10
121.631397208
20
52.3038475773
11
141.549981495
21
40.8038475773
0
LINE
5
56
100
AcDbEntity
8
0
6
ByLayer
62
256
370
-1
100
AcDbLine
10
147.549981495
20
51.1961524227
11
127.631397208
21
62.6961524227
0
CIRCLE
5
57
100
AcDbEntity
8
0
6
ByLayer
62
256
370
-1
100
AcDbCircle
10
146.844948815
20
44.675
40
1.5
0
CIRCLE
5
58
100
AcDbEntity
8
0
6
ByLayer
62
256
370
-1
100
AcDbCircle
10
122.336429888
20
58.825
40
1.5
0
LINE
5
59
100
AcDbEntity
8
0
6
ByLayer
62
256
370
-1
100
AcDbLine
10
147.549981495
20
118.803847577
11
141.549981495
21
129.196152423
0
LINE
5
5A
100
AcDbEntity
8
0
6
ByLayer
62
256
370
-1
100
AcDbLine
10
121.631397208
20
117.696152423
11
127.631397208
21
107.303847577
0
LINE
5
5B
100
AcDbEntity
8
0
6
ByLayer
62
256
370
-1
100
AcDbLine
10
127.631397208
20
107.303847577
11
147.549981495
21
118.803847577
0
LINE
5
5C
100
AcDbEntity
8
0
6
ByLayer
62
256
370
-1
100
AcDbLine
10
141.549981495
20
129.196152423
11
121.631397208
21
117.696152423
0
CIRCLE
5
5D
100
AcDbEntity
8
0
6
ByLayer
62
256
370
-1
100
AcDbCircle
10
146.844948815
20
125.325
40
1.5
0
CIRCLE
5
5E
100
AcDbEntity
8
0
6
ByLayer
62
256
370
-1
100
AcDbCircle
10
122.336429888
20
111.175
40
1.5
0
LINE
5
5F
100
AcDbEntity
8
0
6
ByLayer
62
256
370
-1
100
AcDbLine
10
83
20
163
11
71
21
163
0
LINE
5
60
100
AcDbEntity
8
0
6
ByLayer
62
256
370
-1
100
AcDbLine
10
71
20
140
11
83
21
140
0
LINE
5
61
100
AcDbEntity
8
0
6
ByLayer
62
256
370
-1
100
AcDbLine
10
83
20
140
11
83
21
163
0
LINE
5
62
100
AcDbEntity
8
0
6
ByLayer
62
256
370
-1
100
AcDbLine
10
71
20
163
11
71
21
140
0
CIRCLE
5
63
100
AcDbEntity
8
0
6
ByLayer
62
256
370
-1
100
AcDbCircle
10
77
20
165.65
40
1.5
0
CIRCLE
5
64
100
AcDbEntity
8
0
6
ByLayer
62
256
370
-1
100
AcDbCircle
10
77
20
137.35
40
1.5
0
LINE
5
65
100
AcDbEntity
8
0
6
ByLayer
62
256
370
-1
100
AcDbLine
10
12.4500185048
20
129.196152423
11
6.45001850481
21
118.803847577
0
LINE
5
66
100
AcDbEntity
8
0
6
ByLayer
62
256
370
-1
100
AcDbLine
10
26.3686027919
20
107.303847577
11
32.3686027919
21
117.696152423
0
LINE
5
67
100
AcDbEntity
8
0
6
ByLayer
62
256
370
-1
100
AcDbLine
10
32.3686027919
20
117.696152423
11
12.4500185048
21
129.196152423
0
LINE
5
68
100
AcDbEntity
8
0
6
ByLayer
62
256
370
-1
100
AcDbLine
10
6.45001850481
20
118.803847577
11
26.3686027919
21
107.303847577
0
CIRCLE
5
69
100
AcDbEntity
8
0
6
ByLayer
62
256
370
-1
100
AcDbCircle
10
7.15505118479
20
125.325
40
1.5
0
CIRCLE
5
6A
100
AcDbEntity
8
0
6
ByLayer
62
256
370
-1
100
AcDbCircle
10
31.6635701119
20
111.175
40
1.5
0
LINE
5
6B
100
AcDbEntity
8
0
6
ByLayer
62
256
370
-1
100
AcDbLine
10
6.45001850481
20
51.1961524227
11
12.4500185048
21
40.8038475773
0
LINE
5
6C
100
AcDbEntity
8
0
6
ByLayer
62
256
370
-1
100
AcDbLine
10
32.3686027919
20
52.3038475773
11
26.3686027919
21
62.6961524227
0
LINE
5
6D
100
AcDbEntity
8
0
6
ByLayer
62
256
370
-1
100
AcDbLine
10
26.3686027919
20
62.6961524227
11
6.45001850481
21
51.1961524227
0
LINE
5
6E
100
AcDbEntity
8
0
6
ByLayer
62
256
370
-1
100
AcDbLine
10
12.4500185048
20
40.8038475773
11
32.3686027919
21
52.3038475773
0
CIRCLE
5
6F
100
AcDbEntity
8
0
6
ByLayer
62
256
370
-1
100
AcDbCircle
10
7.15505118478
20
44.675
40
1.5
0
CIRCLE
5
70
100
AcDbEntity
8
0
6
ByLayer
62
256
370
-1
100
AcDbCircle
10
31.6635701119
20
58.825
40
1.5
0
ARC
5
71
100
AcDbEntity
8
0
6
ByLayer
62
256
370
-1
100
AcDbCircle
10
81
20
5.05640288662
40
5
100
AcDbArc
50
280.669171327
51
360
0
LINE
5
72
100
AcDbEntity
8
0
6
ByLayer
62
256
370
-1
100
AcDbLine
10
86
20
5.05640288666
11
86
21
6.31883165328
0
ARC
5
73
100
AcDbEntity
8
0
6
ByLayer
62
256
370
-1
100
AcDbCircle
10
91
20
6.31883177249
40
5
100
AcDbArc
50
110.213381737
51
180
0
ARC
5
74
100
AcDbEntity
8
0
6
ByLayer
62
256
370
-1
100
AcDbCircle
10
73
20
5.05640288662
40
5
100
AcDbArc
50
180
51
259.330828673
0
LINE
5
75
100
AcDbEntity
8
0
6
ByLayer
62
256
370
-1
100
AcDbLine
10
68
20
5.05640288666
11
68
21
6.31883165328
0
ARC
5
76
100
AcDbEntity
8
0
6
ByLayer
62
256
370
-1
100
AcDbCircle
10
63
20
6.31883177249
40
5
100
AcDbArc
50
360
51
69.7866182635
0
ARC
5
77
100
AcDbEntity
8
0
6
ByLayer
62
256
370
-1
100
AcDbCircle
10
77
20
85
40
85
100
AcDbArc
50
266.677889306
51
273.322110694
0
ARC
5
78
100
AcDbEntity
8
0
6
ByLayer
62
256
370
-1
100
AcDbCircle
10
148.23318597
20
48.4923030584
40
5
100
AcDbArc
50
340.669171327
51
60
0
LINE
5
79
100
AcDbEntity
8
0
6
ByLayer
62
256
370
-1
100
AcDbLine
10
150.73318597
20
52.8224300774
11
149.639890588
21
53.4536444607
0
ARC
5
7A
100
AcDbEntity
8
0
6
ByLayer
62
256
370
-1
100
AcDbCircle
10
152.139890484
20
57.7837715392
40
5
100
AcDbArc
50
170.213381737
51
240
0
ARC
5
7B
100
AcDbEntity
8
0
6
ByLayer
62
256
370
-1
100
AcDbCircle
10
144.23318597
20
41.5640998282
40
5
100
AcDbArc
50
240
51
319.330828673
0
LINE
5
7C
100
AcDbEntity
8
0
6
ByLayer
62
256
370
-1
100
AcDbLine
10
141.73318597
20
37.2339728093
11
140.639890588
21
37.8651871926
0
ARC
5
7D
100
AcDbEntity
8
0
6
ByLayer
62
256
370
-1
100
AcDbCircle
10
138.139890484
20
33.5350602333
40
5
100
AcDbArc
50
60
51
129.786618263
0
ARC
5
7E
100
AcDbEntity
8
0
6
ByLayer
62
256
370
-1
100
AcDbCircle
10
77
20
85
40
85
100
AcDbArc
50
326.677889306
51
333.322110694
0
ARC
5
7F
100
AcDbEntity
8
0
6
ByLayer
62
256
370
-1
100
AcDbCircle
10
144.23318597
20
128.435900172
40
5
100
AcDbArc
50
40.6691713271
51
120
0
LINE
5
80
100
AcDbEntity
8
0
6
ByLayer
62
256
370
-1
100
AcDbLine
10
141.73318597
20
132.766027191
11
140.639890588
21
132.134812807
0
ARC
5
81
100
AcDbEntity
8
0
6
ByLayer
62
256
370
-1
100
AcDbCircle
10
138.139890484
20
136.464939767
40
5
100
AcDbArc
50
230.213381737
51
300
0
ARC
5
82
100
AcDbEntity
8
0
6
ByLayer
62
256
370
-1
100
AcDbCircle
10
148.23318597
20
121.507696942
40
5
100
AcDbArc
50
300
51
19.3308286729
0
LINE
5
83
100
AcDbEntity
8
0
6
ByLayer
62
256
370
-1
100
AcDbLine
10
150.73318597
20
117.177569923
11
149.639890588
21
116.546355539
0
ARC
5
84
100
AcDbEntity
8
0
6
ByLayer
62
256
370
-1
100
AcDbCircle
10
152.139890484
20
112.216228461
40
5
100
AcDbArc
50
120
51
189.786618263
0
ARC
5
85
100
AcDbEntity
8
0
6
ByLayer
62
256
370
-1
100
AcDbCircle
10
77
20
85
40
85
100
AcDbArc
50
26.6778893055
51
33.3221106945
0
ARC
5
86
100
AcDbEntity
8
0
6
ByLayer
62
256
370
-1
100
AcDbCircle
10
73
20
164.943597113
40
5
100
AcDbArc
50
100.669171327
51
180
0
LINE
5
87
100
AcDbEntity
8
0
6
ByLayer
62
256
370
-1
100
AcDbLine
10
68
20
164.943597113
11
68
21
163.681168347
0
ARC
5
88
100
AcDbEntity
8
0
6
ByLayer
62
256
370
-1
100
AcDbCircle
10
63
20
163.681168228
40
5
100
AcDbArc
50
290.213381737
51
360
0
ARC
5
89
100
AcDbEntity
8
0
6
ByLayer
62
256
370
-1
100
AcDbCircle
10
81
20
164.943597113
40
5
100
AcDbArc
50
360
51
79.3308286729
0
LINE
5
8A
100
AcDbEntity
8
0
6
ByLayer
62
256
370
-1
100
AcDbLine
10
86
20
164.943597113
11
86
21
163.681168347
0
ARC
5
8B
100
AcDbEntity
8
0
6
ByLayer
62
256
370
-1
100
AcDbCircle
10
91
20
163.681168228
40
5
100
AcDbArc
50
180
51
249.786618263
0
ARC
5
8C
100
AcDbEntity
8
0
6
ByLayer
62
256
370
-1
100
AcDbCircle
10
77
20
85
40
85
100
AcDbArc
50
86.6778893055
51
93.3221106945
0
ARC
5
8D
100
AcDbEntity
8
0
6
ByLayer
62
256
370
-1
100
AcDbCircle
10
5.7668140299
20
121.507696942
40
5
100
AcDbArc
50
160.669171327
51
240
0
LINE
5
8E
100
AcDbEntity
8
0
6
ByLayer
62
256
370
-1
100
AcDbLine
10
3.26681402994
20
117.177569923
11
4.3601094123
21
116.546355539
0
ARC
5
8F
100
AcDbEntity
8
0
6
ByLayer
62
256
370
-1
100
AcDbCircle
10
1.86010951554
20
112.216228461
40
5
100
AcDbArc
50
350.213381737
51
60
0
ARC
5
90
100
AcDbEntity
8
0
6
ByLayer
62
256
370
-1
100
AcDbCircle
10
9.7668140299
20
128.435900172
40
5
100
AcDbArc
50
60
51
139.330828673
0
LINE
5
91
100
AcDbEntity
8
0
6
ByLayer
62
256
370
-1
100
AcDbLine
10
12.2668140299
20
132.766027191
11
13.3601094123
21
132.134812807
0
ARC
5
92
100
AcDbEntity
8
0
6
ByLayer
62
256
370
-1
100
AcDbCircle
10
15.8601095155
20
136.464939767
40
5
100
AcDbArc
50
240
51
309.786618263
0
ARC
5
93
100
AcDbEntity
8
0
6
ByLayer
62
256
370
-1
100
AcDbCircle
10
77
20
85
40
85
100
AcDbArc
50
146.677889306
51
153.322110694
0
ARC
5
94
100
AcDbEntity
8
0
6
ByLayer
62
256
370
-1
100
AcDbCircle
10
9.7668140299
20
41.5640998282
40
5
100
AcDbArc
50
220.669171327
51
300
0
LINE
5
95
100
AcDbEntity
8
0
6
ByLayer
62
256
370
-1
100
AcDbLine
10
12.2668140299
20
37.2339728093
11
13.3601094123
21
37.8651871926
0
ARC
5
96
100
AcDbEntity
8
0
6
ByLayer
62
256
370
-1
100
AcDbCircle
10
15.8601095155
20
33.5350602333
40
5
100
AcDbArc
50
50.2133817365
51
120
0
ARC
5
97
100
AcDbEntity
8
0
6
ByLayer
62
256
370
-1
100
AcDbCircle
10
5.7668140299
20
48.4923030584
40
5
100
AcDbArc
50
120
51
199.330828673
0
LINE
5
98
100
AcDbEntity
8
0
6
ByLayer
62
256
370
-1
100
AcDbLine
10
3.26681402994
20
52.8224300774
11
4.3601094123
21
53.4536444607
0
ARC
5
99
100
AcDbEntity
8
0
6
ByLayer
62
256
370
-1
100
AcDbCircle
10
1.86010951554
20
57.7837715392
40
5
100
AcDbArc
50
300
51
9.7866182635
0
ARC
5
9A
100
AcDbEntity
8
0
6
ByLayer
62
256
370
-1
100
AcDbCircle
10
77
20
85
40
85
100
AcDbArc
50
206.677889306
51
213.322110694
0
ARC
5
9B
100
AcDbEntity
8
0
6
ByLayer
62
256
370
-1
100
AcDbCircle
10
77
20
85
40
75
100
AcDbArc
50
339.417783932
51
20.5822160683
0
ARC
5
9C
100
AcDbEntity
8
0
6
ByLayer
62
256
370
-1
100
AcDbCircle
10
77
20
85
40
75
100
AcDbArc
50
279.417783932
51
320.582216068
0
ARC
5
9D
100
AcDbEntity
8
0
6
ByLayer
62
256
370
-1
100
AcDbCircle
10
77
20
85
40
75
100
AcDbArc
50
219.417783932
51
260.582216068
0
ARC
5
9E
100
AcDbEntity
8
0
6
ByLayer
62
256
370
-1
100
AcDbCircle
10
77
20
85
40
75
100
AcDbArc
50
159.417783932
51
200.582216068
0
ARC
5
9F
100
AcDbEntity
8
0
6
ByLayer
62
256
370
-1
100
AcDbCircle
10
77
20
85
40
75
100
AcDbArc
50
99.4177839319
51
140.582216068
0
ARC
5
A0
100
AcDbEntity
8
0
6
ByLayer
62
256
370
-1
100
AcDbCircle
10
77
20
85
40
75
100
AcDbArc
50
39.4177839317
51
80.5822160683
0
ENDSEC
0
SECTION
2
OBJECTS
0
DICTIONARY
5
C
330
0
100
AcDbDictionary
281
1
3
ACAD_GROUP
350
D
0
DICTIONARY
5
D
330
C
100
AcDbDictionary
281
1
0
ENDSEC
0
EOF
