999
dxfrw 0.5.10
0
SECTION
2
HEADER
9
$ACADVER
1
AC1021
9
$HANDSEED
5
20000
9
$DWGCODEPAGE
3
ANSI_1252
9
$INSBASE
10
0
20
0
30
0
9
$EXTMIN
10
0
20
-9.62216972766e-11
30
0
9
$EXTMAX
10
151
20
369
30
0
9
$LIMMIN
10
0
20
0
9
$LIMMAX
10
420
20
297
9
$ORTHOMODE
70
0
9
$LTSCALE
40
1
9
$TEXTSTYLE
7
STANDARD
9
$CLAYER
8
0
9
$DIMASZ
40
2.5
9
$DIMLFAC
40
1
9
$DIMSCALE
40
1
9
$DIMEXO
40
0.625
9
$DIMEXE
40
1.25
9
$DIMTXT
40
2.5
9
$DIMTSZ
40
0
9
$DIMAUNIT
70
0
9
$DIMADEC
70
0
9
$DIMLUNIT
70
2
9
$DIMSTYLE
2
STANDARD
9
$DIMGAP
40
0.625
9
$DIMTIH
70
0
9
$LUNITS
70
2
9
$LUPREC
70
4
9
$AUNITS
70
0
9
$AUPREC
70
2
9
$SPLINESEGS
70
8
9
$SNAPSTYLE
70
0
9
$PINSBASE
10
0
20
0
30
0
9
$PLIMMIN
10
0
20
0
9
$PLIMMAX
10
210
20
297
9
$INSUNITS
70
4
9
$PSVPSCALE
40
1
0
ENDSEC
0
SECTION
2
CLASSES
0
ENDSEC
0
SECTION
2
TABLES
0
TABLE
2
VPORT
5
8
330
0
100
AcDbSymbolTable
70
1
0
VPORT
5
31
330
2
100
AcDbSymbolTableRecord
100
AcDbViewportTableRecord
2
*ACTIVE
70
0
10
0
20
0
11
1
21
1
12
303.649902344
22
197.448730469
13
0
23
0
14
10
24
10
15
10
25
10
16
0
26
0
36
1
17
0
27
0
37
0
40
371.09375
41
1.95394736842
42
50
43
0
44
0
50
0
51
0
71
0
72
100
73
1
74
3
75
0
76
1
77
0
78
0
281
0
65
1
110
0
120
0
130
0
111
1
121
0
131
0
112
0
122
1
132
0
79
0
146
0
348
10020
60
7
61
5
292
1
282
1
141
0
142
0
63
250
421
3358443
0
ENDTAB
0
TABLE
2
LTYPE
5
5
330
0
100
AcDbSymbolTable
70
4
0
LTYPE
5
14
330
5
100
AcDbSymbolTableRecord
100
AcDbLinetypeTableRecord
2
ByBlock
70
0
3

72
65
73
0
40
0
0
LTYPE
5
15
330
5
100
AcDbSymbolTableRecord
100
AcDbLinetypeTableRecord
2
ByLayer
70
0
3

72
65
73
0
40
0
0
LTYPE
5
16
330
5
100
AcDbSymbolTableRecord
100
AcDbLinetypeTableRecord
2
Continuous
70
0
3
Solid line
72
65
73
0
40
0
0
LTYPE
5
32
330
5
100
AcDbSymbolTableRecord
100
AcDbLinetypeTableRecord
2
DOT
70
0
3
Dot . . . . . . . . . . . . . . . . . . . . . .
72
65
73
2
40
6.35
49
0
74
0
49
-6.35
74
0
0
LTYPE
5
33
330
5
100
AcDbSymbolTableRecord
100
AcDbLinetypeTableRecord
2
DOT2
70
0
3
Dot (.5x) .....................................
72
65
73
2
40
3.175
49
0
74
0
49
-3.175
74
0
0
LTYPE
5
34
330
5
100
AcDbSymbolTableRecord
100
AcDbLinetypeTableRecord
2
DOTX2
70
0
3
Dot (2x) .  .  .  .  .  .  .  .  .  .  .  .  .
72
65
73
2
40
12.7
49
0
74
0
49
-12.7
74
0
0
LTYPE
5
35
330
5
100
AcDbSymbolTableRecord
100
AcDbLinetypeTableRecord
2
DASHED
70
0
3
Dot . . . . . . . . . . . . . . . . . . . . . .
72
65
73
2
40
19.05
49
12.7
74
0
49
-6.35
74
0
0
LTYPE
5
36
330
5
100
AcDbSymbolTableRecord
100
AcDbLinetypeTableRecord
2
DASHED2
70
0
3
Dashed (.5x) _ _ _ _ _ _ _ _ _ _ _ _ _ _ _ _ _
72
65
73
2
40
9.525
49
6.35
74
0
49
-3.175
74
0
0
LTYPE
5
37
330
5
100
AcDbSymbolTableRecord
100
AcDbLinetypeTableRecord
2
DASHEDX2
70
0
3
Dashed (2x) ____  ____  ____  ____  ____  ___
72
65
73
2
40
38.1
49
25.4
74
0
49
-12.7
74
0
0
LTYPE
5
38
330
5
100
AcDbSymbolTableRecord
100
AcDbLinetypeTableRecord
2
DASHDOT
70
0
3
Dash dot __ . __ . __ . __ . __ . __ . __ . __
72
65
73
4
40
25.4
49
12.7
74
0
49
-6.35
74
0
49
0
74
0
49
-6.35
74
0
0
LTYPE
5
39
330
5
100
AcDbSymbolTableRecord
100
AcDbLinetypeTableRecord
2
DASHDOT2
70
0
3
Dash dot (.5x) _._._._._._._._._._._._._._._.
72
65
73
4
40
12.7
49
6.35
74
0
49
-3.175
74
0
49
0
74
0
49
-3.175
74
0
0
LTYPE
5
3A
330
5
100
AcDbSymbolTableRecord
100
AcDbLinetypeTableRecord
2
DASHDOTX2
70
0
3
Dash dot (2x) ____  .  ____  .  ____  .  ___
72
65
73
4
40
50.8
49
25.4
74
0
49
-12.7
74
0
49
0
74
0
49
-12.7
74
0
0
LTYPE
5
3B
330
5
100
AcDbSymbolTableRecord
100
AcDbLinetypeTableRecord
2
DIVIDE
70
0
3
Divide ____ . . ____ . . ____ . . ____ . . ____
72
65
73
6
40
31.75
49
12.7
74
0
49
-6.35
74
0
49
0
74
0
49
-6.35
74
0
49
0
74
0
49
-6.35
74
0
0
LTYPE
5
3C
330
5
100
AcDbSymbolTableRecord
100
AcDbLinetypeTableRecord
2
DIVIDE2
70
0
3
Divide (.5x) __..__..__..__..__..__..__..__.._
72
65
73
6
40
15.875
49
6.35
74
0
49
-3.175
74
0
49
0
74
0
49
-3.175
74
0
49
0
74
0
49
-3.175
74
0
0
LTYPE
5
3D
330
5
100
AcDbSymbolTableRecord
100
AcDbLinetypeTableRecord
2
DIVIDEX2
70
0
3
Divide (2x) ________  .  .  ________  .  .  _
72
65
73
6
40
63.5
49
25.4
74
0
49
-12.7
74
0
49
0
74
0
49
-12.7
74
0
49
0
74
0
49
-12.7
74
0
0
LTYPE
5
3E
330
5
100
AcDbSymbolTableRecord
100
AcDbLinetypeTableRecord
2
BORDER
70
0
3
Border __ __ . __ __ . __ __ . __ __ . __ __ .
72
65
73
6
40
44.45
49
12.7
74
0
49
-6.35
74
0
49
12.7
74
0
49
-6.35
74
0
49
0
74
0
49
-6.35
74
0
0
LTYPE
5
3F
330
5
100
AcDbSymbolTableRecord
100
AcDbLinetypeTableRecord
2
BORDER2
70
0
3
Border (.5x) __.__.__.__.__.__.__.__.__.__.__.
72
65
73
6
40
22.225
49
6.35
74
0
49
-3.175
74
0
49
6.35
74
0
49
-3.175
74
0
49
0
74
0
49
-3.175
74
0
0
LTYPE
5
40
330
5
100
AcDbSymbolTableRecord
100
AcDbLinetypeTableRecord
2
BORDERX2
70
0
3
Border (2x) ____  ____  .  ____  ____  .  ___
72
65
73
6
40
88.9
49
25.4
74
0
49
-12.7
74
0
49
25.4
74
0
49
-12.7
74
0
49
0
74
0
49
-12.7
74
0
0
LTYPE
5
41
330
5
100
AcDbSymbolTableRecord
100
AcDbLinetypeTableRecord
2
CENTER
70
0
3
Center ____ _ ____ _ ____ _ ____ _ ____ _ ____
72
65
73
4
40
50.8
49
31.75
74
0
49
-6.35
74
0
49
6.35
74
0
49
-6.35
74
0
0
LTYPE
5
42
330
5
100
AcDbSymbolTableRecord
100
AcDbLinetypeTableRecord
2
CENTER2
70
0
3
Center (.5x) ___ _ ___ _ ___ _ ___ _ ___ _ ___
72
65
73
4
40
28.575
49
19.05
74
0
49
-3.175
74
0
49
3.175
74
0
49
-3.175
74
0
0
LTYPE
5
43
330
5
100
AcDbSymbolTableRecord
100
AcDbLinetypeTableRecord
2
CENTERX2
70
0
3
Center (2x) ________  __  ________  __  _____
72
65
73
4
40
101.6
49
63.5
74
0
49
-12.7
74
0
49
12.7
74
0
49
-12.7
74
0
0
ENDTAB
0
TABLE
2
LAYER
5
2
330
0
100
AcDbSymbolTable
70
1
0
LAYER
5
10
330
2
100
AcDbSymbolTableRecord
100
AcDbLayerTableRecord
2
0
70
0
62
7
6
CONTINUOUS
370
0
390
F
0
LAYER
5
44
330
2
100
AcDbSymbolTableRecord
100
AcDbLayerTableRecord
2
drill_holes
70
0
62
2
6
CONTINUOUS
370
0
390
F
0
ENDTAB
0
TABLE
2
STYLE
5
3
330
0
100
AcDbSymbolTable
70
3
0
STYLE
5
45
330
2
100
AcDbSymbolTableRecord
100
AcDbTextStyleTableRecord
2
Standard
70
0
40
0
41
1
50
0
71
0
42
1
3
txt
4

0
ENDTAB
0
TABLE
2
VIEW
5
6
330
0
100
AcDbSymbolTable
70
0
0
ENDTAB
0
TABLE
2
UCS
5
7
330
0
100
AcDbSymbolTable
70
0
0
ENDTAB
0
TABLE
2
APPID
5
9
330
0
100
AcDbSymbolTable
70
1
0
APPID
5
12
330
9
100
AcDbSymbolTableRecord
100
AcDbRegAppTableRecord
2
ACAD
70
0
0
ENDTAB
0
TABLE
2
DIMSTYLE
5
A
330
0
100
AcDbSymbolTable
70
1
100
AcDbDimStyleTable
71
1
0
DIMSTYLE
105
46
330
A
100
AcDbSymbolTableRecord
100
AcDbDimStyleTableRecord
2
Standard
70
0
40
1
41
2.5
42
0.625
43
0.38
44
1.25
45
0
46
0
47
0
48
0
140
2.5
141
0.09
142
0
143
25.4
144
1
145
0
146
1
147
0.625
148
0
71
0
72
0
73
0
74
1
75
0
76
0
77
0
78
0
79
0
170
0
171
2
172
0
173
0
174
0
175
0
176
0
177
0
178
0
179
0
271
4
272
4
273
2
274
2
275
0
276
0
277
2
278
46
279
0
280
0
281
0
282
0
283
1
284
0
285
0
286
0
288
0
289
3
340
Standard
341

371
-2
372
-2
0
ENDTAB
0
TABLE
2
BLOCK_RECORD
5
1
330
0
100
AcDbSymbolTable
70
2
0
BLOCK_RECORD
5
1F
330
1
100
AcDbSymbolTableRecord
100
AcDbBlockTableRecord
2
*Model_Space
70
0
280
1
281
0
0
BLOCK_RECORD
5
1E
330
1
100
AcDbSymbolTableRecord
100
AcDbBlockTableRecord
2
*Paper_Space
70
0
280
1
281
0
0
ENDTAB
0
ENDSEC
0
SECTION
2
BLOCKS
0
BLOCK
5
20
330
1F
100
AcDbEntity
8
0
100
AcDbBlockBegin
2
*Model_Space
70
0
10
0
20
0
30
0
3
*Model_Space
1

0
ENDBLK
5
21
330
1F
100
AcDbEntity
8
0
100
AcDbBlockEnd
0
BLOCK
5
1C
330
1B
100
AcDbEntity
8
0
100
AcDbBlockBegin
2
*Paper_Space
70
0
10
0
20
0
30
0
3
*Paper_Space
1

0
ENDBLK
5
1D
330
1F
100
AcDbEntity
8
0
100
AcDbBlockEnd
0
ENDSEC
0
SECTION
2
ENTITIES
0
LINE
5
47
100
AcDbEntity
8
0
6
ByLayer
62
256
370
-1
100
AcDbLine
10
106
20
40
11
136
21
40
0
LINE
5
48
100
AcDbEntity
8
0
6
ByLayer
62
256
370
-1
100
AcDbLine
10
136
20
32
11
106
21
32
0
ARC
5
49
100
AcDbEntity
8
0
6
ByLayer
62
256
370
-1
100
AcDbCircle
10
106
20
36
40
4
100
AcDbArc
50
90
51
270
0
ARC
5
4A
100
AcDbEntity
8
0
6
ByLayer
62
256
370
-1
100
AcDbCircle
10
136
20
36
40
4
100
AcDbArc
50
270
51
90
0
ARC
5
4B
100
AcDbEntity
8
0
6
ByLayer
62
256
370
-1
100
AcDbCircle
10
93
20
47
40
4
100
AcDbArc
50
90
51
270
0
ARC
5
4C
100
AcDbEntity
8
0
6
ByLayer
62
256
370
-1
100
AcDbCircle
10
109
20
47
40
4
100
AcDbArc
50
270
51
90
0
LINE
5
4D
100
AcDbEntity
8
0
6
ByLayer
62
256
370
-1
100
AcDbLine
10
93
20
51
11
109
21
51
0
LINE
5
4E
100
AcDbEntity
8
0
6
ByLayer
62
256
370
-1
100
AcDbLine
10
109
20
43
11
93
21
43
0
ARC
5
4F
100
AcDbEntity
8
0
6
ByLayer
62
256
370
-1
100
AcDbCircle
10
64.9258047992
20
46.9678143886
40
4
100
AcDbArc
50
90
51
270
0
ARC
5
50
100
AcDbEntity
8
0
6
ByLayer
62
256
370
-1
100
AcDbCircle
10
80.9258047992
20
46.9678143886
40
4
100
AcDbArc
50
270
51
90
0
LINE
5
51
100
AcDbEntity
8
0
6
ByLayer
62
256
370
-1
100
AcDbLine
10
64.9258047992
20
50.9678143886
11
80.9258047992
21
50.9678143886
0
LINE
5
52
100
AcDbEntity
8
0
6
ByLayer
62
256
370
-1
100
AcDbLine
10
80.9258047992
20
42.9678143886
11
64.9258047992
21
42.9678143886
0
ARC
5
53
100
AcDbEntity
8
0
6
ByLayer
62
256
370
-1
100
AcDbCircle
10
37.9258047992
20
46.9678143886
40
4
100
AcDbArc
50
90
51
270
0
ARC
5
54
100
AcDbEntity
8
0
6
ByLayer
62
256
370
-1
100
AcDbCircle
10
53.9258047992
20
46.9678143886
40
4
100
AcDbArc
50
270
51
90
0
LINE
5
55
100
AcDbEntity
8
0
6
ByLayer
62
256
370
-1
100
AcDbLine
10
37.9258047992
20
50.9678143886
11
53.9258047992
21
50.9678143886
0
LINE
5
56
100
AcDbEntity
8
0
6
ByLayer
62
256
370
-1
100
AcDbLine
10
53.9258047992
20
42.9678143886
11
37.9258047992
21
42.9678143886
0
ARC
5
57
100
AcDbEntity
8
0
6
ByLayer
62
256
370
-1
100
AcDbCircle
10
120
20
47
40
4
100
AcDbArc
50
90
51
270
0
ARC
5
58
100
AcDbEntity
8
0
6
ByLayer
62
256
370
-1
100
AcDbCircle
10
136
20
47
40
4
100
AcDbArc
50
270
51
90
0
LINE
5
59
100
AcDbEntity
8
0
6
ByLayer
62
256
370
-1
100
AcDbLine
10
120
20
51
11
136
21
51
0
LINE
5
5A
100
AcDbEntity
8
0
6
ByLayer
62
256
370
-1
100
AcDbLine
10
136
20
43
11
120
21
43
0
LINE
5
5B
100
AcDbEntity
8
0
6
ByLayer
62
256
370
-1
100
AcDbLine
10
18
20
44
11
30
21
44
0
LINE
5
5C
100
AcDbEntity
8
0
6
ByLayer
62
256
370
-1
100
AcDbLine
10
18
20
44
11
18
21
49
0
LINE
5
5D
100
AcDbEntity
8
0
6
ByLayer
62
256
370
-1
100
AcDbLine
10
30
20
44
11
30
21
49
0
LINE
5
5E
100
AcDbEntity
8
0
6
ByLayer
62
256
370
-1
100
AcDbLine
10
27.8997
20
55.8901
11
30
21
49
0
ARC
5
5F
100
AcDbEntity
8
0
6
ByLayer
62
256
370
-1
100
AcDbCircle
10
24
20
55
40
4
100
AcDbArc
50
12.8558594496
51
90
0
LINE
5
60
100
AcDbEntity
8
0
6
ByLayer
62
256
370
-1
100
AcDbLine
10
20.1002684147
20
55.8899963833
11
18
21
49
0
ARC
5
61
100
AcDbEntity
8
0
6
ByLayer
62
256
370
-1
100
AcDbCircle
10
24
20
55
40
4
100
AcDbArc
50
90
51
167.14414055
0
LINE
5
62
100
AcDbEntity
8
0
6
ByLayer
62
256
370
-1
100
AcDbLine
10
11
20
15
11
51
21
15
0
LINE
5
63
100
AcDbEntity
8
0
6
ByLayer
62
256
370
-1
100
AcDbLine
10
11
20
15
11
11
21
40
0
LINE
5
64
100
AcDbEntity
8
0
6
ByLayer
62
256
370
-1
100
AcDbLine
10
63
20
40
11
51
21
40
0
LINE
5
65
100
AcDbEntity
8
0
6
ByLayer
62
256
370
-1
100
AcDbLine
10
151
20
5
11
151
21
16
0
LINE
5
66
100
AcDbEntity
8
0
6
ByLayer
62
256
370
-1
100
AcDbLine
10
101
20
0
11
151
21
5
0
LINE
5
67
100
AcDbEntity
8
0
6
ByLayer
62
256
370
-1
100
AcDbLine
10
151
20
16
11
63
21
40
0
ARC
5
68
100
AcDbEntity
8
0
6
ByLayer
62
256
370
-1
100
AcDbCircle
10
43.5
20
20
40
42.5
100
AcDbArc
50
151.927513064
51
208.072486936
0
LINE
5
69
100
AcDbEntity
8
0
6
ByLayer
62
256
370
-1
100
AcDbLine
10
6
20
0
11
101
21
0
0
LINE
5
6A
100
AcDbEntity
8
0
6
ByLayer
62
256
370
-1
100
AcDbLine
10
6
20
40
11
11
21
40
0
LINE
5
6B
100
AcDbEntity
8
0
6
ByLayer
62
256
370
-1
100
AcDbLine
10
51
20
31
11
54
21
31
0
LINE
5
6C
100
AcDbEntity
8
0
6
ByLayer
62
256
370
-1
100
AcDbLine
10
54
20
24
11
51
21
24
0
LINE
5
6D
100
AcDbEntity
8
0
6
ByLayer
62
256
370
-1
100
AcDbLine
10
51
20
31
11
51
21
40
0
LINE
5
6E
100
AcDbEntity
8
0
6
ByLayer
62
256
370
-1
100
AcDbLine
10
100
20
10
11
63
21
10
0
LINE
5
6F
100
AcDbEntity
8
0
6
ByLayer
62
256
370
-1
100
AcDbLine
10
63
20
10
11
63
21
30
0
LINE
5
70
100
AcDbEntity
8
0
6
ByLayer
62
256
370
-1
100
AcDbLine
10
126.585365854
20
12.6585365854
11
63
21
30
0
LINE
5
71
100
AcDbEntity
8
0
6
ByLayer
62
256
370
-1
100
AcDbLine
10
100
20
10
11
126.585365854
21
12.6585365854
0
LINE
5
72
100
AcDbEntity
8
0
6
ByLayer
62
256
370
-1
100
AcDbLine
10
51
20
26.5
11
54
21
26.5
0
LINE
5
73
100
AcDbEntity
8
0
6
ByLayer
62
256
370
-1
100
AcDbLine
10
51
20
28.5
11
54
21
28.5
0
LINE
5
74
100
AcDbEntity
8
0
6
ByLayer
62
256
370
-1
100
AcDbLine
10
54
20
31
11
54
21
28.5
0
LINE
5
75
100
AcDbEntity
8
0
6
ByLayer
62
256
370
-1
100
AcDbLine
10
54
20
26.5
11
54
21
24
0
LINE
5
76
100
AcDbEntity
8
0
6
ByLayer
62
256
370
-1
100
AcDbLine
10
51
20
26.5
11
51
21
28.5
0
LINE
5
77
100
AcDbEntity
8
0
6
ByLayer
62
256
370
-1
100
AcDbLine
10
21
20
32
11
21
21
22
0
ARC
5
78
100
AcDbEntity
8
0
6
ByLayer
62
256
370
-1
100
AcDbCircle
10
25
20
22
40
4
100
AcDbArc
50
180
51
270
0
ARC
5
79
100
AcDbEntity
8
0
6
ByLayer
62
256
370
-1
100
AcDbCircle
10
25
20
32
40
4
100
AcDbArc
50
90
51
180
0
LINE
5
7A
100
AcDbEntity
8
0
6
ByLayer
62
256
370
-1
100
AcDbLine
10
45
20
26
11
48
21
26
0
LINE
5
7B
100
AcDbEntity
8
0
6
ByLayer
62
256
370
-1
100
AcDbLine
10
45
20
28
11
48
21
28
0
ARC
5
7C
100
AcDbEntity
8
0
6
ByLayer
62
256
370
-1
100
AcDbCircle
10
25
20
32
40
4
100
AcDbArc
50
360
51
90
0
ARC
5
7D
100
AcDbEntity
8
0
6
ByLayer
62
256
370
-1
100
AcDbCircle
10
33
20
32
40
4
100
AcDbArc
50
180
51
270
0
ARC
5
7E
100
AcDbEntity
8
0
6
ByLayer
62
256
370
-1
100
AcDbCircle
10
33
20
32
40
4
100
AcDbArc
50
270
51
360
0
ARC
5
7F
100
AcDbEntity
8
0
6
ByLayer
62
256
370
-1
100
AcDbCircle
10
41
20
32
40
4
100
AcDbArc
50
90
51
180
0
LINE
5
80
100
AcDbEntity
8
0
6
ByLayer
62
256
370
-1
100
AcDbLine
10
48
20
23.5
11
45
21
23.5
0
LINE
5
81
100
AcDbEntity
8
0
6
ByLayer
62
256
370
-1
100
AcDbLine
10
45
20
30.5
11
48
21
30.5
0
LINE
5
82
100
AcDbEntity
8
0
6
ByLayer
62
256
370
-1
100
AcDbLine
10
51
20
15
11
51
21
24
0
LINE
5
83
100
AcDbEntity
8
0
6
ByLayer
62
256
370
-1
100
AcDbLine
10
45
20
23.5
11
45
21
26
0
LINE
5
84
100
AcDbEntity
8
0
6
ByLayer
62
256
370
-1
100
AcDbLine
10
45
20
28
11
45
21
30.5
0
LINE
5
85
100
AcDbEntity
8
0
6
ByLayer
62
256
370
-1
100
AcDbLine
10
48
20
28
11
48
21
26
0
ARC
5
86
100
AcDbEntity
8
0
6
ByLayer
62
256
370
-1
100
AcDbCircle
10
44
20
32
40
4
100
AcDbArc
50
360
51
90
0
LINE
5
87
100
AcDbEntity
8
0
6
ByLayer
62
256
370
-1
100
AcDbLine
10
44
20
36
11
41
21
36
0
LINE
5
88
100
AcDbEntity
8
0
6
ByLayer
62
256
370
-1
100
AcDbLine
10
48
20
30.5
11
48
21
32
0
ARC
5
89
100
AcDbEntity
8
0
6
ByLayer
62
256
370
-1
100
AcDbCircle
10
44
20
22
40
4
100
AcDbArc
50
270
51
0
0
LINE
5
8A
100
AcDbEntity
8
0
6
ByLayer
62
256
370
-1
100
AcDbLine
10
48
20
23.5
11
48
21
22
0
LINE
5
8B
100
AcDbEntity
8
0
6
ByLayer
62
256
370
-1
100
AcDbLine
10
25
20
18
11
44
21
18
0
LINE
5
8C
100
AcDbEntity
8
0
6
ByLayer
62
256
370
-1
100
AcDbLine
10
15
20
44
11
15
21
56
0
LINE
5
8D
100
AcDbEntity
8
0
6
ByLayer
62
256
370
-1
100
AcDbLine
10
15
20
44
11
10
21
44
0
LINE
5
8E
100
AcDbEntity
8
0
6
ByLayer
62
256
370
-1
100
AcDbLine
10
15
20
56
11
10
21
56
0
LINE
5
8F
100
AcDbEntity
8
0
6
ByLayer
62
256
370
-1
100
AcDbLine
10
3.1099
20
53.8997
11
10
21
56
0
ARC
5
90
100
AcDbEntity
8
0
6
ByLayer
62
256
370
-1
100
AcDbCircle
10
4
20
50
40
4
100
AcDbArc
50
102.85585945
51
180
0
LINE
5
91
100
AcDbEntity
8
0
6
ByLayer
62
256
370
-1
100
AcDbLine
10
3.1100036167
20
46.1002684147
11
10
21
44
0
ARC
5
92
100
AcDbEntity
8
0
6
ByLayer
62
256
370
-1
100
AcDbCircle
10
4
20
50
40
4
100
AcDbArc
50
180
51
257.14414055
0
LINE
5
93
100
AcDbEntity
8
0
6
ByLayer
62
256
370
-1
100
AcDbLine
10
143
20
25
11
143
21
55
0
LINE
5
94
100
AcDbEntity
8
0
6
ByLayer
62
256
370
-1
100
AcDbLine
10
151
20
55
11
151
21
25
0
ARC
5
95
100
AcDbEntity
8
0
6
ByLayer
62
256
370
-1
100
AcDbCircle
10
147
20
25
40
4
100
AcDbArc
50
180
51
360
0
ARC
5
96
100
AcDbEntity
8
0
6
ByLayer
62
256
370
-1
100
AcDbCircle
10
147
20
55
40
4
100
AcDbArc
50
360
51
180
0
CIRCLE
5
97
100
AcDbEntity
8
drill_holes
6
ByLayer
62
256
370
-1
100
AcDbCircle
10
136
20
36
40
1.6
0
CIRCLE
5
98
100
AcDbEntity
8
drill_holes
6
ByLayer
62
256
370
-1
100
AcDbCircle
10
106
20
36
40
1.6
0
CIRCLE
5
99
100
AcDbEntity
8
drill_holes
6
ByLayer
62
256
370
-1
100
AcDbCircle
10
93
20
47
40
1.6
0
CIRCLE
5
9A
100
AcDbEntity
8
drill_holes
6
ByLayer
62
256
370
-1
100
AcDbCircle
10
109
20
47
40
1.6
0
CIRCLE
5
9B
100
AcDbEntity
8
drill_holes
6
ByLayer
62
256
370
-1
100
AcDbCircle
10
64.9258047992
20
46.9678143886
40
1.6
0
CIRCLE
5
9C
100
AcDbEntity
8
drill_holes
6
ByLayer
62
256
370
-1
100
AcDbCircle
10
80.9258047992
20
46.9678143886
40
1.6
0
CIRCLE
5
9D
100
AcDbEntity
8
drill_holes
6
ByLayer
62
256
370
-1
100
AcDbCircle
10
37.9258047992
20
46.9678143886
40
1.6
0
CIRCLE
5
9E
100
AcDbEntity
8
drill_holes
6
ByLayer
62
256
370
-1
100
AcDbCircle
10
53.9258047992
20
46.9678143886
40
1.6
0
CIRCLE
5
9F
100
AcDbEntity
8
drill_holes
6
ByLayer
62
256
370
-1
100
AcDbCircle
10
120
20
47
40
1.6
0
CIRCLE
5
A0
100
AcDbEntity
8
drill_holes
6
ByLayer
62
256
370
-1
100
AcDbCircle
10
136
20
47
40
1.6
0
CIRCLE
5
A1
100
AcDbEntity
8
drill_holes
6
ByLayer
62
256
370
-1
100
AcDbCircle
10
24
20
55
40
1.6
0
CIRCLE
5
A2
100
AcDbEntity
8
drill_holes
6
ByLayer
62
256
370
-1
100
AcDbCircle
10
24
20
46.5
40
1.6
0
CIRCLE
5
A3
100
AcDbEntity
8
drill_holes
6
ByLayer
62
256
370
-1
100
AcDbCircle
10
36
20
7.5
40
1.60312195419
0
CIRCLE
5
A4
100
AcDbEntity
8
drill_holes
6
ByLayer
62
256
370
-1
100
AcDbCircle
10
20
20
7.5
40
1.60312195419
0
CIRCLE
5
A5
100
AcDbEntity
8
drill_holes
6
ByLayer
62
256
370
-1
100
AcDbCircle
10
25
20
32
40
1.6
0
CIRCLE
5
A6
100
AcDbEntity
8
drill_holes
6
ByLayer
62
256
370
-1
100
AcDbCircle
10
25
20
22
40
1.6
0
CIRCLE
5
A7
100
AcDbEntity
8
drill_holes
6
ByLayer
62
256
370
-1
100
AcDbCircle
10
41
20
32
40
1.6
0
CIRCLE
5
A8
100
AcDbEntity
8
drill_holes
6
ByLayer
62
256
370
-1
100
AcDbCircle
10
41
20
22
40
1.6
0
CIRCLE
5
A9
100
AcDbEntity
8
drill_holes
6
ByLayer
62
256
370
-1
100
AcDbCircle
10
4
20
50
40
1.6
0
CIRCLE
5
AA
100
AcDbEntity
8
drill_holes
6
ByLayer
62
256
370
-1
100
AcDbCircle
10
12.5
20
50
40
1.6
0
CIRCLE
5
AB
100
AcDbEntity
8
drill_holes
6
ByLayer
62
256
370
-1
100
AcDbCircle
10
147
20
55
40
1.6
0
CIRCLE
5
AC
100
AcDbEntity
8
drill_holes
6
ByLayer
62
256
370
-1
100
AcDbCircle
10
147
20
25
40
1.6
0
LINE
5
AD
100
AcDbEntity
8
0
6
ByLayer
62
256
370
-1
100
AcDbLine
10
106
20
102
11
136
21
102
0
LINE
5
AE
100
AcDbEntity
8
0
6
ByLayer
62
256
370
-1
100
AcDbLine
10
136
20
94
11
106
21
94
0
ARC
5
AF
100
AcDbEntity
8
0
6
ByLayer
62
256
370
-1
100
AcDbCircle
10
106
20
98
40
4
100
AcDbArc
50
90
51
270
0
ARC
5
B0
100
AcDbEntity
8
0
6
ByLayer
62
256
370
-1
100
AcDbCircle
10
136
20
98
40
4
100
AcDbArc
50
270
51
90
0
ARC
5
B1
100
AcDbEntity
8
0
6
ByLayer
62
256
370
-1
100
AcDbCircle
10
93
20
109
40
4
100
AcDbArc
50
90
51
270
0
ARC
5
B2
100
AcDbEntity
8
0
6
ByLayer
62
256
370
-1
100
AcDbCircle
10
109
20
109
40
4
100
AcDbArc
50
270
51
90
0
LINE
5
B3
100
AcDbEntity
8
0
6
ByLayer
62
256
370
-1
100
AcDbLine
10
93
20
113
11
109
21
113
0
LINE
5
B4
100
AcDbEntity
8
0
6
ByLayer
62
256
370
-1
100
AcDbLine
10
109
20
105
11
93
21
105
0
ARC
5
B5
100
AcDbEntity
8
0
6
ByLayer
62
256
370
-1
100
AcDbCircle
10
64.9258047992
20
108.967814389
40
4
100
AcDbArc
50
90
51
270
0
ARC
5
B6
100
AcDbEntity
8
0
6
ByLayer
62
256
370
-1
100
AcDbCircle
10
80.9258047992
20
108.967814389
40
4
100
AcDbArc
50
270
51
90
0
LINE
5
B7
100
AcDbEntity
8
0
6
ByLayer
62
256
370
-1
100
AcDbLine
10
64.9258047992
20
112.967814389
11
80.9258047992
21
112.967814389
0
LINE
5
B8
100
AcDbEntity
8
0
6
ByLayer
62
256
370
-1
100
AcDbLine
10
80.9258047992
20
104.967814389
11
64.9258047992
21
104.967814389
0
ARC
5
B9
100
AcDbEntity
8
0
6
ByLayer
62
256
370
-1
100
AcDbCircle
10
37.9258047992
20
108.967814389
40
4
100
AcDbArc
50
90
51
270
0
ARC
5
BA
100
AcDbEntity
8
0
6
ByLayer
62
256
370
-1
100
AcDbCircle
10
53.9258047992
20
108.967814389
40
4
100
AcDbArc
50
270
51
90
0
LINE
5
BB
100
AcDbEntity
8
0
6
ByLayer
62
256
370
-1
100
AcDbLine
10
37.9258047992
20
112.967814389
11
53.9258047992
21
112.967814389
0
LINE
5
BC
100
AcDbEntity
8
0
6
ByLayer
62
256
370
-1
100
AcDbLine
10
53.9258047992
20
104.967814389
11
37.9258047992
21
104.967814389
0
ARC
5
BD
100
AcDbEntity
8
0
6
ByLayer
62
256
370
-1
100
AcDbCircle
10
120
20
109
40
4
100
AcDbArc
50
90
51
270
0
ARC
5
BE
100
AcDbEntity
8
0
6
ByLayer
62
256
370
-1
100
AcDbCircle
10
136
20
109
40
4
100
AcDbArc
50
270
51
90
0
LINE
5
BF
100
AcDbEntity
8
0
6
ByLayer
62
256
370
-1
100
AcDbLine
10
120
20
113
11
136
21
113
0
LINE
5
C0
100
AcDbEntity
8
0
6
ByLayer
62
256
370
-1
100
AcDbLine
10
136
20
105
11
120
21
105
0
LINE
5
C1
100
AcDbEntity
8
0
6
ByLayer
62
256
370
-1
100
AcDbLine
10
18
20
106
11
30
21
106
0
LINE
5
C2
100
AcDbEntity
8
0
6
ByLayer
62
256
370
-1
100
AcDbLine
10
18
20
106
11
18
21
111
0
LINE
5
C3
100
AcDbEntity
8
0
6
ByLayer
62
256
370
-1
100
AcDbLine
10
30
20
106
11
30
21
111
0
LINE
5
C4
100
AcDbEntity
8
0
6
ByLayer
62
256
370
-1
100
AcDbLine
10
27.8997
20
117.8901
11
30
21
111
0
ARC
5
C5
100
AcDbEntity
8
0
6
ByLayer
62
256
370
-1
100
AcDbCircle
10
24
20
117
40
4
100
AcDbArc
50
12.8558594496
51
90
0
LINE
5
C6
100
AcDbEntity
8
0
6
ByLayer
62
256
370
-1
100
AcDbLine
10
20.1002684147
20
117.889996383
11
18
21
111
0
ARC
5
C7
100
AcDbEntity
8
0
6
ByLayer
62
256
370
-1
100
AcDbCircle
10
24
20
117
40
4
100
AcDbArc
50
90
51
167.14414055
0
LINE
5
C8
100
AcDbEntity
8
0
6
ByLayer
62
256
370
-1
100
AcDbLine
10
11
20
77
11
51
21
77
0
LINE
5
C9
100
AcDbEntity
8
0
6
ByLayer
62
256
370
-1
100
AcDbLine
10
11
20
77
11
11
21
102
0
LINE
5
CA
100
AcDbEntity
8
0
6
ByLayer
62
256
370
-1
100
AcDbLine
10
63
20
102
11
51
21
102
0
LINE
5
CB
100
AcDbEntity
8
0
6
ByLayer
62
256
370
-1
100
AcDbLine
10
151
20
67
11
151
21
78
0
LINE
5
CC
100
AcDbEntity
8
0
6
ByLayer
62
256
370
-1
100
AcDbLine
10
101
20
62
11
151
21
67
0
LINE
5
CD
100
AcDbEntity
8
0
6
ByLayer
62
256
370
-1
100
AcDbLine
10
151
20
78
11
63
21
102
0
ARC
5
CE
100
AcDbEntity
8
0
6
ByLayer
62
256
370
-1
100
AcDbCircle
10
43.5
20
82
40
42.5
100
AcDbArc
50
151.927513064
51
208.072486936
0
LINE
5
CF
100
AcDbEntity
8
0
6
ByLayer
62
256
370
-1
100
AcDbLine
10
6
20
62
11
101
21
62
0
LINE
5
D0
100
AcDbEntity
8
0
6
ByLayer
62
256
370
-1
100
AcDbLine
10
6
20
102
11
11
21
102
0
LINE
5
D1
100
AcDbEntity
8
0
6
ByLayer
62
256
370
-1
100
AcDbLine
10
51
20
93
11
54
21
93
0
LINE
5
D2
100
AcDbEntity
8
0
6
ByLayer
62
256
370
-1
100
AcDbLine
10
54
20
86
11
51
21
86
0
LINE
5
D3
100
AcDbEntity
8
0
6
ByLayer
62
256
370
-1
100
AcDbLine
10
51
20
93
11
51
21
102
0
LINE
5
D4
100
AcDbEntity
8
0
6
ByLayer
62
256
370
-1
100
AcDbLine
10
100
20
72
11
63
21
72
0
LINE
5
D5
100
AcDbEntity
8
0
6
ByLayer
62
256
370
-1
100
AcDbLine
10
63
20
72
11
63
21
92
0
LINE
5
D6
100
AcDbEntity
8
0
6
ByLayer
62
256
370
-1
100
AcDbLine
10
126.585365854
20
74.6585365854
11
63
21
92
0
LINE
5
D7
100
AcDbEntity
8
0
6
ByLayer
62
256
370
-1
100
AcDbLine
10
100
20
72
11
126.585365854
21
74.6585365854
0
LINE
5
D8
100
AcDbEntity
8
0
6
ByLayer
62
256
370
-1
100
AcDbLine
10
51
20
88.5
11
54
21
88.5
0
LINE
5
D9
100
AcDbEntity
8
0
6
ByLayer
62
256
370
-1
100
AcDbLine
10
51
20
90.5
11
54
21
90.5
0
LINE
5
DA
100
AcDbEntity
8
0
6
ByLayer
62
256
370
-1
100
AcDbLine
10
54
20
93
11
54
21
90.5
0
LINE
5
DB
100
AcDbEntity
8
0
6
ByLayer
62
256
370
-1
100
AcDbLine
10
54
20
88.5
11
54
21
86
0
LINE
5
DC
100
AcDbEntity
8
0
6
ByLayer
62
256
370
-1
100
AcDbLine
10
51
20
88.5
11
51
21
90.5
0
LINE
5
DD
100
AcDbEntity
8
0
6
ByLayer
62
256
370
-1
100
AcDbLine
10
21
20
94
11
21
21
84
0
ARC
5
DE
100
AcDbEntity
8
0
6
ByLayer
62
256
370
-1
100
AcDbCircle
10
25
20
84
40
4
100
AcDbArc
50
180
51
270
0
ARC
5
DF
100
AcDbEntity
8
0
6
ByLayer
62
256
370
-1
100
AcDbCircle
10
25
20
94
40
4
100
AcDbArc
50
90
51
180
0
LINE
5
E0
100
AcDbEntity
8
0
6
ByLayer
62
256
370
-1
100
AcDbLine
10
45
20
88
11
48
21
88
0
LINE
5
E1
100
AcDbEntity
8
0
6
ByLayer
62
256
370
-1
100
AcDbLine
10
45
20
90
11
48
21
90
0
ARC
5
E2
100
AcDbEntity
8
0
6
ByLayer
62
256
370
-1
100
AcDbCircle
10
25
20
94
40
4
100
AcDbArc
50
360
51
90
0
ARC
5
E3
100
AcDbEntity
8
0
6
ByLayer
62
256
370
-1
100
AcDbCircle
10
33
20
94
40
4
100
AcDbArc
50
180
51
270
0
ARC
5
E4
100
AcDbEntity
8
0
6
ByLayer
62
256
370
-1
100
AcDbCircle
10
33
20
94
40
4
100
AcDbArc
50
270
51
360
0
ARC
5
E5
100
AcDbEntity
8
0
6
ByLayer
62
256
370
-1
100
AcDbCircle
10
41
20
94
40
4
100
AcDbArc
50
90
51
180
0
LINE
5
E6
100
AcDbEntity
8
0
6
ByLayer
62
256
370
-1
100
AcDbLine
10
48
20
85.5
11
45
21
85.5
0
LINE
5
E7
100
AcDbEntity
8
0
6
ByLayer
62
256
370
-1
100
AcDbLine
10
45
20
92.5
11
48
21
92.5
0
LINE
5
E8
100
AcDbEntity
8
0
6
ByLayer
62
256
370
-1
100
AcDbLine
10
51
20
77
11
51
21
86
0
LINE
5
E9
100
AcDbEntity
8
0
6
ByLayer
62
256
370
-1
100
AcDbLine
10
45
20
85.5
11
45
21
88
0
LINE
5
EA
100
AcDbEntity
8
0
6
ByLayer
62
256
370
-1
100
AcDbLine
10
45
20
90
11
45
21
92.5
0
LINE
5
EB
100
AcDbEntity
8
0
6
ByLayer
62
256
370
-1
100
AcDbLine
10
48
20
90
11
48
21
88
0
ARC
5
EC
100
AcDbEntity
8
0
6
ByLayer
62
256
370
-1
100
AcDbCircle
10
44
20
94
40
4
100
AcDbArc
50
360
51
90
0
LINE
5
ED
100
AcDbEntity
8
0
6
ByLayer
62
256
370
-1
100
AcDbLine
10
44
20
98
11
41
21
98
0
LINE
5
EE
100
AcDbEntity
8
0
6
ByLayer
62
256
370
-1
100
AcDbLine
10
48
20
92.5
11
48
21
94
0
ARC
5
EF
100
AcDbEntity
8
0
6
ByLayer
62
256
370
-1
100
AcDbCircle
10
44
20
84
40
4
100
AcDbArc
50
270
51
0
0
LINE
5
F0
100
AcDbEntity
8
0
6
ByLayer
62
256
370
-1
100
AcDbLine
10
48
20
85.5
11
48
21
84
0
LINE
5
F1
100
AcDbEntity
8
0
6
ByLayer
62
256
370
-1
100
AcDbLine
10
25
20
80
11
44
21
80
0
LINE
5
F2
100
AcDbEntity
8
0
6
ByLayer
62
256
370
-1
100
AcDbLine
10
15
20
106
11
15
21
118
0
LINE
5
F3
100
AcDbEntity
8
0
6
ByLayer
62
256
370
-1
100
AcDbLine
10
15
20
106
11
10
21
106
0
LINE
5
F4
100
AcDbEntity
8
0
6
ByLayer
62
256
370
-1
100
AcDbLine
10
15
20
118
11
10
21
118
0
LINE
5
F5
100
AcDbEntity
8
0
6
ByLayer
62
256
370
-1
100
AcDbLine
10
3.1099
20
115.8997
11
10
21
118
0
ARC
5
F6
100
AcDbEntity
8
0
6
ByLayer
62
256
370
-1
100
AcDbCircle
10
4
20
112
40
4
100
AcDbArc
50
102.85585945
51
180
0
LINE
5
F7
100
AcDbEntity
8
0
6
ByLayer
62
256
370
-1
100
AcDbLine
10
3.1100036167
20
108.100268415
11
10
21
106
0
ARC
5
F8
100
AcDbEntity
8
0
6
ByLayer
62
256
370
-1
100
AcDbCircle
10
4
20
112
40
4
100
AcDbArc
50
180
51
257.14414055
0
LINE
5
F9
100
AcDbEntity
8
0
6
ByLayer
62
256
370
-1
100
AcDbLine
10
143
20
87
11
143
21
117
0
LINE
5
FA
100
AcDbEntity
8
0
6
ByLayer
62
256
370
-1
100
AcDbLine
10
151
20
117
11
151
21
87
0
ARC
5
FB
100
AcDbEntity
8
0
6
ByLayer
62
256
370
-1
100
AcDbCircle
10
147
20
87
40
4
100
AcDbArc
50
180
51
360
0
ARC
5
FC
100
AcDbEntity
8
0
6
ByLayer
62
256
370
-1
100
AcDbCircle
10
147
20
117
40
4
100
AcDbArc
50
360
51
180
0
CIRCLE
5
FD
100
AcDbEntity
8
drill_holes
6
ByLayer
62
256
370
-1
100
AcDbCircle
10
136
20
98
40
1.6
0
CIRCLE
5
FE
100
AcDbEntity
8
drill_holes
6
ByLayer
62
256
370
-1
100
AcDbCircle
10
106
20
98
40
1.6
0
CIRCLE
5
FF
100
AcDbEntity
8
drill_holes
6
ByLayer
62
256
370
-1
100
AcDbCircle
10
93
20
109
40
1.6
0
CIRCLE
5
100
100
AcDbEntity
8
drill_holes
6
ByLayer
62
256
370
-1
100
AcDbCircle
10
109
20
109
40
1.6
0
CIRCLE
5
101
100
AcDbEntity
8
drill_holes
6
ByLayer
62
256
370
-1
100
AcDbCircle
10
64.9258047992
20
108.967814389
40
1.6
0
CIRCLE
5
102
100
AcDbEntity
8
drill_holes
6
ByLayer
62
256
370
-1
100
AcDbCircle
10
80.9258047992
20
108.967814389
40
1.6
0
CIRCLE
5
103
100
AcDbEntity
8
drill_holes
6
ByLayer
62
256
370
-1
100
AcDbCircle
10
37.9258047992
20
108.967814389
40
1.6
0
CIRCLE
5
104
100
AcDbEntity
8
drill_holes
6
ByLayer
62
256
370
-1
100
AcDbCircle
10
53.9258047992
20
108.967814389
40
1.6
0
CIRCLE
5
105
100
AcDbEntity
8
drill_holes
6
ByLayer
62
256
370
-1
100
AcDbCircle
10
120
20
109
40
1.6
0
CIRCLE
5
106
100
AcDbEntity
8
drill_holes
6
ByLayer
62
256
370
-1
100
AcDbCircle
10
136
20
109
40
1.6
0
CIRCLE
5
107
100
AcDbEntity
8
drill_holes
6
ByLayer
62
256
370
-1
100
AcDbCircle
10
24
20
117
40
1.6
0
CIRCLE
5
108
100
AcDbEntity
8
drill_holes
6
ByLayer
62
256
370
-1
100
AcDbCircle
10
24
20
108.5
40
1.6
0
CIRCLE
5
109
100
AcDbEntity
8
drill_holes
6
ByLayer
62
256
370
-1
100
AcDbCircle
10
36
20
69.5
40
1.60312195419
0
CIRCLE
5
10A
100
AcDbEntity
8
drill_holes
6
ByLayer
62
256
370
-1
100
AcDbCircle
10
20
20
69.5
40
1.60312195419
0
CIRCLE
5
10B
100
AcDbEntity
8
drill_holes
6
ByLayer
62
256
370
-1
100
AcDbCircle
10
25
20
94
40
1.6
0
CIRCLE
5
10C
100
AcDbEntity
8
drill_holes
6
ByLayer
62
256
370
-1
100
AcDbCircle
10
25
20
84
40
1.6
0
CIRCLE
5
10D
100
AcDbEntity
8
drill_holes
6
ByLayer
62
256
370
-1
100
AcDbCircle
10
41
20
94
40
1.6
0
CIRCLE
5
10E
100
AcDbEntity
8
drill_holes
6
ByLayer
62
256
370
-1
100
AcDbCircle
10
41
20
84
40
1.6
0
CIRCLE
5
10F
100
AcDbEntity
8
drill_holes
6
ByLayer
62
256
370
-1
100
AcDbCircle
10
4
20
112
40
1.6
0
CIRCLE
5
110
100
AcDbEntity
8
drill_holes
6
ByLayer
62
256
370
-1
100
AcDbCircle
10
12.5
20
112
40
1.6
0
CIRCLE
5
111
100
AcDbEntity
8
drill_holes
6
ByLayer
62
256
370
-1
100
AcDbCircle
10
147
20
117
40
1.6
0
CIRCLE
5
112
100
AcDbEntity
8
drill_holes
6
ByLayer
62
256
370
-1
100
AcDbCircle
10
147
20
87
40
1.6
0
LINE
5
113
100
AcDbEntity
8
0
6
ByLayer
62
256
370
-1
100
AcDbLine
10
106
20
164
11
136
21
164
0
LINE
5
114
100
AcDbEntity
8
0
6
ByLayer
62
256
370
-1
100
AcDbLine
10
136
20
156
11
106
21
156
0
ARC
5
115
100
AcDbEntity
8
0
6
ByLayer
62
256
370
-1
100
AcDbCircle
10
106
20
160
40
4
100
AcDbArc
50
90
51
270
0
ARC
5
116
100
AcDbEntity
8
0
6
ByLayer
62
256
370
-1
100
AcDbCircle
10
136
20
160
40
4
100
AcDbArc
50
270
51
90
0
ARC
5
117
100
AcDbEntity
8
0
6
ByLayer
62
256
370
-1
100
AcDbCircle
10
93
20
171
40
4
100
AcDbArc
50
90
51
270
0
ARC
5
118
100
AcDbEntity
8
0
6
ByLayer
62
256
370
-1
100
AcDbCircle
10
109
20
171
40
4
100
AcDbArc
50
270
51
90
0
LINE
5
119
100
AcDbEntity
8
0
6
ByLayer
62
256
370
-1
100
AcDbLine
10
93
20
175
11
109
21
175
0
LINE
5
11A
100
AcDbEntity
8
0
6
ByLayer
62
256
370
-1
100
AcDbLine
10
109
20
167
11
93
21
167
0
ARC
5
11B
100
AcDbEntity
8
0
6
ByLayer
62
256
370
-1
100
AcDbCircle
10
64.9258047992
20
170.967814389
40
4
100
AcDbArc
50
90
51
270
0
ARC
5
11C
100
AcDbEntity
8
0
6
ByLayer
62
256
370
-1
100
AcDbCircle
10
80.9258047992
20
170.967814389
40
4
100
AcDbArc
50
270
51
90
0
LINE
5
11D
100
AcDbEntity
8
0
6
ByLayer
62
256
370
-1
100
AcDbLine
10
64.9258047992
20
174.967814389
11
80.9258047992
21
174.967814389
0
LINE
5
11E
100
AcDbEntity
8
0
6
ByLayer
62
256
370
-1
100
AcDbLine
10
80.9258047992
20
166.967814389
11
64.9258047992
21
166.967814389
0
ARC
5
11F
100
AcDbEntity
8
0
6
ByLayer
62
256
370
-1
100
AcDbCircle
10
37.9258047992
20
170.967814389
40
4
100
AcDbArc
50
90
51
270
0
ARC
5
120
100
AcDbEntity
8
0
6
ByLayer
62
256
370
-1
100
AcDbCircle
10
53.9258047992
20
170.967814389
40
4
100
AcDbArc
50
270
51
90
0
LINE
5
121
100
AcDbEntity
8
0
6
ByLayer
62
256
370
-1
100
AcDbLine
10
37.9258047992
20
174.967814389
11
53.9258047992
21
174.967814389
0
LINE
5
122
100
AcDbEntity
8
0
6
ByLayer
62
256
370
-1
100
AcDbLine
10
53.9258047992
20
166.967814389
11
37.9258047992
21
166.967814389
0
ARC
5
123
100
AcDbEntity
8
0
6
ByLayer
62
256
370
-1
100
AcDbCircle
10
120
20
171
40
4
100
AcDbArc
50
90
51
270
0
ARC
5
124
100
AcDbEntity
8
0
6
ByLayer
62
256
370
-1
100
AcDbCircle
10
136
20
171
40
4
100
AcDbArc
50
270
51
90
0
LINE
5
125
100
AcDbEntity
8
0
6
ByLayer
62
256
370
-1
100
AcDbLine
10
120
20
175
11
136
21
175
0
LINE
5
126
100
AcDbEntity
8
0
6
ByLayer
62
256
370
-1
100
AcDbLine
10
136
20
167
11
120
21
167
0
LINE
5
127
100
AcDbEntity
8
0
6
ByLayer
62
256
370
-1
100
AcDbLine
10
18
20
168
11
30
21
168
0
LINE
5
128
100
AcDbEntity
8
0
6
ByLayer
62
256
370
-1
100
AcDbLine
10
18
20
168
11
18
21
173
0
LINE
5
129
100
AcDbEntity
8
0
6
ByLayer
62
256
370
-1
100
AcDbLine
10
30
20
168
11
30
21
173
0
LINE
5
12A
100
AcDbEntity
8
0
6
ByLayer
62
256
370
-1
100
AcDbLine
10
27.8997
20
179.8901
11
30
21
173
0
ARC
5
12B
100
AcDbEntity
8
0
6
ByLayer
62
256
370
-1
100
AcDbCircle
10
24
20
179
40
4
100
AcDbArc
50
12.8558594496
51
90
0
LINE
5
12C
100
AcDbEntity
8
0
6
ByLayer
62
256
370
-1
100
AcDbLine
10
20.1002684147
20
179.889996383
11
18
21
173
0
ARC
5
12D
100
AcDbEntity
8
0
6
ByLayer
62
256
370
-1
100
AcDbCircle
10
24
20
179
40
4
100
AcDbArc
50
90
51
167.14414055
0
LINE
5
12E
100
AcDbEntity
8
0
6
ByLayer
62
256
370
-1
100
AcDbLine
10
11
20
139
11
51
21
139
0
LINE
5
12F
100
AcDbEntity
8
0
6
ByLayer
62
256
370
-1
100
AcDbLine
10
11
20
139
11
11
21
164
0
LINE
5
130
100
AcDbEntity
8
0
6
ByLayer
62
256
370
-1
100
AcDbLine
10
63
20
164
11
51
21
164
0
LINE
5
131
100
AcDbEntity
8
0
6
ByLayer
62
256
370
-1
100
AcDbLine
10
151
20
129
11
151
21
140
0
LINE
5
132
100
AcDbEntity
8
0
6
ByLayer
62
256
370
-1
100
AcDbLine
10
101
20
124
11
151
21
129
0
LINE
5
133
100
AcDbEntity
8
0
6
ByLayer
62
256
370
-1
100
AcDbLine
10
151
20
140
11
63
21
164
0
ARC
5
134
100
AcDbEntity
8
0
6
ByLayer
62
256
370
-1
100
AcDbCircle
10
43.5
20
144
40
42.5
100
AcDbArc
50
151.927513064
51
208.072486936
0
LINE
5
135
100
AcDbEntity
8
0
6
ByLayer
62
256
370
-1
100
AcDbLine
10
6
20
124
11
101
21
124
0
LINE
5
136
100
AcDbEntity
8
0
6
ByLayer
62
256
370
-1
100
AcDbLine
10
6
20
164
11
11
21
164
0
LINE
5
137
100
AcDbEntity
8
0
6
ByLayer
62
256
370
-1
100
AcDbLine
10
51
20
155
11
54
21
155
0
LINE
5
138
100
AcDbEntity
8
0
6
ByLayer
62
256
370
-1
100
AcDbLine
10
54
20
148
11
51
21
148
0
LINE
5
139
100
AcDbEntity
8
0
6
ByLayer
62
256
370
-1
100
AcDbLine
10
51
20
155
11
51
21
164
0
LINE
5
13A
100
AcDbEntity
8
0
6
ByLayer
62
256
370
-1
100
AcDbLine
10
100
20
134
11
63
21
134
0
LINE
5
13B
100
AcDbEntity
8
0
6
ByLayer
62
256
370
-1
100
AcDbLine
10
63
20
134
11
63
21
154
0
LINE
5
13C
100
AcDbEntity
8
0
6
ByLayer
62
256
370
-1
100
AcDbLine
10
126.585365854
20
136.658536585
11
63
21
154
0
LINE
5
13D
100
AcDbEntity
8
0
6
ByLayer
62
256
370
-1
100
AcDbLine
10
100
20
134
11
126.585365854
21
136.658536585
0
LINE
5
13E
100
AcDbEntity
8
0
6
ByLayer
62
256
370
-1
100
AcDbLine
10
51
20
150.5
11
54
21
150.5
0
LINE
5
13F
100
AcDbEntity
8
0
6
ByLayer
62
256
370
-1
100
AcDbLine
10
51
20
152.5
11
54
21
152.5
0
LINE
5
140
100
AcDbEntity
8
0
6
ByLayer
62
256
370
-1
100
AcDbLine
10
54
20
155
11
54
21
152.5
0
LINE
5
141
100
AcDbEntity
8
0
6
ByLayer
62
256
370
-1
100
AcDbLine
10
54
20
150.5
11
54
21
148
0
LINE
5
142
100
AcDbEntity
8
0
6
ByLayer
62
256
370
-1
100
AcDbLine
10
51
20
150.5
11
51
21
152.5
0
LINE
5
143
100
AcDbEntity
8
0
6
ByLayer
62
256
370
-1
100
AcDbLine
10
21
20
156
11
21
21
146
0
ARC
5
144
100
AcDbEntity
8
0
6
ByLayer
62
256
370
-1
100
AcDbCircle
10
25
20
146
40
4
100
AcDbArc
50
180
51
270
0
ARC
5
145
100
AcDbEntity
8
0
6
ByLayer
62
256
370
-1
100
AcDbCircle
10
25
20
156
40
4
100
AcDbArc
50
90
51
180
0
LINE
5
146
100
AcDbEntity
8
0
6
ByLayer
62
256
370
-1
100
AcDbLine
10
45
20
150
11
48
21
150
0
LINE
5
147
100
AcDbEntity
8
0
6
ByLayer
62
256
370
-1
100
AcDbLine
10
45
20
152
11
48
21
152
0
ARC
5
148
100
AcDbEntity
8
0
6
ByLayer
62
256
370
-1
100
AcDbCircle
10
25
20
156
40
4
100
AcDbArc
50
360
51
90
0
ARC
5
149
100
AcDbEntity
8
0
6
ByLayer
62
256
370
-1
100
AcDbCircle
10
33
20
156
40
4
100
AcDbArc
50
180
51
270
0
ARC
5
14A
100
AcDbEntity
8
0
6
ByLayer
62
256
370
-1
100
AcDbCircle
10
33
20
156
40
4
100
AcDbArc
50
270
51
360
0
ARC
5
14B
100
AcDbEntity
8
0
6
ByLayer
62
256
370
-1
100
AcDbCircle
10
41
20
156
40
4
100
AcDbArc
50
90
51
180
0
LINE
5
14C
100
AcDbEntity
8
0
6
ByLayer
62
256
370
-1
100
AcDbLine
10
48
20
147.5
11
45
21
147.5
0
LINE
5
14D
100
AcDbEntity
8
0
6
ByLayer
62
256
370
-1
100
AcDbLine
10
45
20
154.5
11
48
21
154.5
0
LINE
5
14E
100
AcDbEntity
8
0
6
ByLayer
62
256
370
-1
100
AcDbLine
10
51
20
139
11
51
21
148
0
LINE
5
14F
100
AcDbEntity
8
0
6
ByLayer
62
256
370
-1
100
AcDbLine
10
45
20
147.5
11
45
21
150
0
LINE
5
150
100
AcDbEntity
8
0
6
ByLayer
62
256
370
-1
100
AcDbLine
10
45
20
152
11
45
21
154.5
0
LINE
5
151
100
AcDbEntity
8
0
6
ByLayer
62
256
370
-1
100
AcDbLine
10
48
20
152
11
48
21
150
0
ARC
5
152
100
AcDbEntity
8
0
6
ByLayer
62
256
370
-1
100
AcDbCircle
10
44
20
156
40
4
100
AcDbArc
50
360
51
90
0
LINE
5
153
100
AcDbEntity
8
0
6
ByLayer
62
256
370
-1
100
AcDbLine
10
44
20
160
11
41
21
160
0
LINE
5
154
100
AcDbEntity
8
0
6
ByLayer
62
256
370
-1
100
AcDbLine
10
48
20
154.5
11
48
21
156
0
ARC
5
155
100
AcDbEntity
8
0
6
ByLayer
62
256
370
-1
100
AcDbCircle
10
44
20
146
40
4
100
AcDbArc
50
270
51
0
0
LINE
5
156
100
AcDbEntity
8
0
6
ByLayer
62
256
370
-1
100
AcDbLine
10
48
20
147.5
11
48
21
146
0
LINE
5
157
100
AcDbEntity
8
0
6
ByLayer
62
256
370
-1
100
AcDbLine
10
25
20
142
11
44
21
142
0
LINE
5
158
100
AcDbEntity
8
0
6
ByLayer
62
256
370
-1
100
AcDbLine
10
15
20
168
11
15
21
180
0
LINE
5
159
100
AcDbEntity
8
0
6
ByLayer
62
256
370
-1
100
AcDbLine
10
15
20
168
11
10
21
168
0
LINE
5
15A
100
AcDbEntity
8
0
6
ByLayer
62
256
370
-1
100
AcDbLine
10
15
20
180
11
10
21
180
0
LINE
5
15B
100
AcDbEntity
8
0
6
ByLayer
62
256
370
-1
100
AcDbLine
10
3.1099
20
177.8997
11
10
21
180
0
ARC
5
15C
100
AcDbEntity
8
0
6
ByLayer
62
256
370
-1
100
AcDbCircle
10
4
20
174
40
4
100
AcDbArc
50
102.85585945
51
180
0
LINE
5
15D
100
AcDbEntity
8
0
6
ByLayer
62
256
370
-1
100
AcDbLine
10
3.1100036167
20
170.100268415
11
10
21
168
0
ARC
5
15E
100
AcDbEntity
8
0
6
ByLayer
62
256
370
-1
100
AcDbCircle
10
4
20
174
40
4
100
AcDbArc
50
180
51
257.14414055
0
LINE
5
15F
100
AcDbEntity
8
0
6
ByLayer
62
256
370
-1
100
AcDbLine
10
143
20
149
11
143
21
179
0
LINE
5
160
100
AcDbEntity
8
0
6
ByLayer
62
256
370
-1
100
AcDbLine
10
151
20
179
11
151
21
149
0
ARC
5
161
100
AcDbEntity
8
0
6
ByLayer
62
256
370
-1
100
AcDbCircle
10
147
20
149
40
4
100
AcDbArc
50
180
51
360
0
ARC
5
162
100
AcDbEntity
8
0
6
ByLayer
62
256
370
-1
100
AcDbCircle
10
147
20
179
40
4
100
AcDbArc
50
360
51
180
0
CIRCLE
5
163
100
AcDbEntity
8
drill_holes
6
ByLayer
62
256
370
-1
100
AcDbCircle
10
136
20
160
40
1.6
0
CIRCLE
5
164
100
AcDbEntity
8
drill_holes
6
ByLayer
62
256
370
-1
100
AcDbCircle
10
106
20
160
40
1.6
0
CIRCLE
5
165
100
AcDbEntity
8
drill_holes
6
ByLayer
62
256
370
-1
100
AcDbCircle
10
93
20
171
40
1.6
0
CIRCLE
5
166
100
AcDbEntity
8
drill_holes
6
ByLayer
62
256
370
-1
100
AcDbCircle
10
109
20
171
40
1.6
0
CIRCLE
5
167
100
AcDbEntity
8
drill_holes
6
ByLayer
62
256
370
-1
100
AcDbCircle
10
64.9258047992
20
170.967814389
40
1.6
0
CIRCLE
5
168
100
AcDbEntity
8
drill_holes
6
ByLayer
62
256
370
-1
100
AcDbCircle
10
80.9258047992
20
170.967814389
40
1.6
0
CIRCLE
5
169
100
AcDbEntity
8
drill_holes
6
ByLayer
62
256
370
-1
100
AcDbCircle
10
37.9258047992
20
170.967814389
40
1.6
0
CIRCLE
5
16A
100
AcDbEntity
8
drill_holes
6
ByLayer
62
256
370
-1
100
AcDbCircle
10
53.9258047992
20
170.967814389
40
1.6
0
CIRCLE
5
16B
100
AcDbEntity
8
drill_holes
6
ByLayer
62
256
370
-1
100
AcDbCircle
10
120
20
171
40
1.6
0
CIRCLE
5
16C
100
AcDbEntity
8
drill_holes
6
ByLayer
62
256
370
-1
100
AcDbCircle
10
136
20
171
40
1.6
0
CIRCLE
5
16D
100
AcDbEntity
8
drill_holes
6
ByLayer
62
256
370
-1
100
AcDbCircle
10
24
20
179
40
1.6
0
CIRCLE
5
16E
100
AcDbEntity
8
drill_holes
6
ByLayer
62
256
370
-1
100
AcDbCircle
10
24
20
170.5
40
1.6
0
CIRCLE
5
16F
100
AcDbEntity
8
drill_holes
6
ByLayer
62
256
370
-1
100
AcDbCircle
10
36
20
131.5
40
1.60312195419
0
CIRCLE
5
170
100
AcDbEntity
8
drill_holes
6
ByLayer
62
256
370
-1
100
AcDbCircle
10
20
20
131.5
40
1.60312195419
0
CIRCLE
5
171
100
AcDbEntity
8
drill_holes
6
ByLayer
62
256
370
-1
100
AcDbCircle
10
25
20
156
40
1.6
0
CIRCLE
5
172
100
AcDbEntity
8
drill_holes
6
ByLayer
62
256
370
-1
100
AcDbCircle
10
25
20
146
40
1.6
0
CIRCLE
5
173
100
AcDbEntity
8
drill_holes
6
ByLayer
62
256
370
-1
100
AcDbCircle
10
41
20
156
40
1.6
0
CIRCLE
5
174
100
AcDbEntity
8
drill_holes
6
ByLayer
62
256
370
-1
100
AcDbCircle
10
41
20
146
40
1.6
0
CIRCLE
5
175
100
AcDbEntity
8
drill_holes
6
ByLayer
62
256
370
-1
100
AcDbCircle
10
4
20
174
40
1.6
0
CIRCLE
5
176
100
AcDbEntity
8
drill_holes
6
ByLayer
62
256
370
-1
100
AcDbCircle
10
12.5
20
174
40
1.6
0
CIRCLE
5
177
100
AcDbEntity
8
drill_holes
6
ByLayer
62
256
370
-1
100
AcDbCircle
10
147
20
179
40
1.6
0
CIRCLE
5
178
100
AcDbEntity
8
drill_holes
6
ByLayer
62
256
370
-1
100
AcDbCircle
10
147
20
149
40
1.6
0
LINE
5
179
100
AcDbEntity
8
0
6
ByLayer
62
256
370
-1
100
AcDbLine
10
106
20
226
11
136
21
226
0
LINE
5
17A
100
AcDbEntity
8
0
6
ByLayer
62
256
370
-1
100
AcDbLine
10
136
20
218
11
106
21
218
0
ARC
5
17B
100
AcDbEntity
8
0
6
ByLayer
62
256
370
-1
100
AcDbCircle
10
106
20
222
40
4
100
AcDbArc
50
90
51
270
0
ARC
5
17C
100
AcDbEntity
8
0
6
ByLayer
62
256
370
-1
100
AcDbCircle
10
136
20
222
40
4
100
AcDbArc
50
270
51
90
0
ARC
5
17D
100
AcDbEntity
8
0
6
ByLayer
62
256
370
-1
100
AcDbCircle
10
93
20
233
40
4
100
AcDbArc
50
90
51
270
0
ARC
5
17E
100
AcDbEntity
8
0
6
ByLayer
62
256
370
-1
100
AcDbCircle
10
109
20
233
40
4
100
AcDbArc
50
270
51
90
0
LINE
5
17F
100
AcDbEntity
8
0
6
ByLayer
62
256
370
-1
100
AcDbLine
10
93
20
237
11
109
21
237
0
LINE
5
180
100
AcDbEntity
8
0
6
ByLayer
62
256
370
-1
100
AcDbLine
10
109
20
229
11
93
21
229
0
ARC
5
181
100
AcDbEntity
8
0
6
ByLayer
62
256
370
-1
100
AcDbCircle
10
64.9258047992
20
232.967814389
40
4
100
AcDbArc
50
90
51
270
0
ARC
5
182
100
AcDbEntity
8
0
6
ByLayer
62
256
370
-1
100
AcDbCircle
10
80.9258047992
20
232.967814389
40
4
100
AcDbArc
50
270
51
90
0
LINE
5
183
100
AcDbEntity
8
0
6
ByLayer
62
256
370
-1
100
AcDbLine
10
64.9258047992
20
236.967814389
11
80.9258047992
21
236.967814389
0
LINE
5
184
100
AcDbEntity
8
0
6
ByLayer
62
256
370
-1
100
AcDbLine
10
80.9258047992
20
228.967814389
11
64.9258047992
21
228.967814389
0
ARC
5
185
100
AcDbEntity
8
0
6
ByLayer
62
256
370
-1
100
AcDbCircle
10
37.9258047992
20
232.967814389
40
4
100
AcDbArc
50
90
51
270
0
ARC
5
186
100
AcDbEntity
8
0
6
ByLayer
62
256
370
-1
100
AcDbCircle
10
53.9258047992
20
232.967814389
40
4
100
AcDbArc
50
270
51
90
0
LINE
5
187
100
AcDbEntity
8
0
6
ByLayer
62
256
370
-1
100
AcDbLine
10
37.9258047992
20
236.967814389
11
53.9258047992
21
236.967814389
0
LINE
5
188
100
AcDbEntity
8
0
6
ByLayer
62
256
370
-1
100
AcDbLine
10
53.9258047992
20
228.967814389
11
37.9258047992
21
228.967814389
0
ARC
5
189
100
AcDbEntity
8
0
6
ByLayer
62
256
370
-1
100
AcDbCircle
10
120
20
233
40
4
100
AcDbArc
50
90
51
270
0
ARC
5
18A
100
AcDbEntity
8
0
6
ByLayer
62
256
370
-1
100
AcDbCircle
10
136
20
233
40
4
100
AcDbArc
50
270
51
90
0
LINE
5
18B
100
AcDbEntity
8
0
6
ByLayer
62
256
370
-1
100
AcDbLine
10
120
20
237
11
136
21
237
0
LINE
5
18C
100
AcDbEntity
8
0
6
ByLayer
62
256
370
-1
100
AcDbLine
10
136
20
229
11
120
21
229
0
LINE
5
18D
100
AcDbEntity
8
0
6
ByLayer
62
256
370
-1
100
AcDbLine
10
18
20
230
11
30
21
230
0
LINE
5
18E
100
AcDbEntity
8
0
6
ByLayer
62
256
370
-1
100
AcDbLine
10
18
20
230
11
18
21
235
0
LINE
5
18F
100
AcDbEntity
8
0
6
ByLayer
62
256
370
-1
100
AcDbLine
10
30
20
230
11
30
21
235
0
LINE
5
190
100
AcDbEntity
8
0
6
ByLayer
62
256
370
-1
100
AcDbLine
10
27.8997
20
241.8901
11
30
21
235
0
ARC
5
191
100
AcDbEntity
8
0
6
ByLayer
62
256
370
-1
100
AcDbCircle
10
24
20
241
40
4
100
AcDbArc
50
12.8558594496
51
90
0
LINE
5
192
100
AcDbEntity
8
0
6
ByLayer
62
256
370
-1
100
AcDbLine
10
20.1002684147
20
241.889996383
11
18
21
235
0
ARC
5
193
100
AcDbEntity
8
0
6
ByLayer
62
256
370
-1
100
AcDbCircle
10
24
20
241
40
4
100
AcDbArc
50
90
51
167.14414055
0
LINE
5
194
100
AcDbEntity
8
0
6
ByLayer
62
256
370
-1
100
AcDbLine
10
11
20
201
11
51
21
201
0
LINE
5
195
100
AcDbEntity
8
0
6
ByLayer
62
256
370
-1
100
AcDbLine
10
11
20
201
11
11
21
226
0
LINE
5
196
100
AcDbEntity
8
0
6
ByLayer
62
256
370
-1
100
AcDbLine
10
63
20
226
11
51
21
226
0
LINE
5
197
100
AcDbEntity
8
0
6
ByLayer
62
256
370
-1
100
AcDbLine
10
151
20
191
11
151
21
202
0
LINE
5
198
100
AcDbEntity
8
0
6
ByLayer
62
256
370
-1
100
AcDbLine
10
101
20
186
11
151
21
191
0
LINE
5
199
100
AcDbEntity
8
0
6
ByLayer
62
256
370
-1
100
AcDbLine
10
151
20
202
11
63
21
226
0
ARC
5
19A
100
AcDbEntity
8
0
6
ByLayer
62
256
370
-1
100
AcDbCircle
10
43.5
20
206
40
42.5
100
AcDbArc
50
151.927513064
51
208.072486936
0
LINE
5
19B
100
AcDbEntity
8
0
6
ByLayer
62
256
370
-1
100
AcDbLine
10
6
20
186
11
101
21
186
0
LINE
5
19C
100
AcDbEntity
8
0
6
ByLayer
62
256
370
-1
100
AcDbLine
10
6
20
226
11
11
21
226
0
LINE
5
19D
100
AcDbEntity
8
0
6
ByLayer
62
256
370
-1
100
AcDbLine
10
51
20
217
11
54
21
217
0
LINE
5
19E
100
AcDbEntity
8
0
6
ByLayer
62
256
370
-1
100
AcDbLine
10
54
20
210
11
51
21
210
0
LINE
5
19F
100
AcDbEntity
8
0
6
ByLayer
62
256
370
-1
100
AcDbLine
10
51
20
217
11
51
21
226
0
LINE
5
1A0
100
AcDbEntity
8
0
6
ByLayer
62
256
370
-1
100
AcDbLine
10
100
20
196
11
63
21
196
0
LINE
5
1A1
100
AcDbEntity
8
0
6
ByLayer
62
256
370
-1
100
AcDbLine
10
63
20
196
11
63
21
216
0
LINE
5
1A2
100
AcDbEntity
8
0
6
ByLayer
62
256
370
-1
100
AcDbLine
10
126.585365854
20
198.658536585
11
63
21
216
0
LINE
5
1A3
100
AcDbEntity
8
0
6
ByLayer
62
256
370
-1
100
AcDbLine
10
100
20
196
11
126.585365854
21
198.658536585
0
LINE
5
1A4
100
AcDbEntity
8
0
6
ByLayer
62
256
370
-1
100
AcDbLine
10
51
20
212.5
11
54
21
212.5
0
LINE
5
1A5
100
AcDbEntity
8
0
6
ByLayer
62
256
370
-1
100
AcDbLine
10
51
20
214.5
11
54
21
214.5
0
LINE
5
1A6
100
AcDbEntity
8
0
6
ByLayer
62
256
370
-1
100
AcDbLine
10
54
20
217
11
54
21
214.5
0
LINE
5
1A7
100
AcDbEntity
8
0
6
ByLayer
62
256
370
-1
100
AcDbLine
10
54
20
212.5
11
54
21
210
0
LINE
5
1A8
100
AcDbEntity
8
0
6
ByLayer
62
256
370
-1
100
AcDbLine
10
51
20
212.5
11
51
21
214.5
0
LINE
5
1A9
100
AcDbEntity
8
0
6
ByLayer
62
256
370
-1
100
AcDbLine
10
21
20
218
11
21
21
208
0
ARC
5
1AA
100
AcDbEntity
8
0
6
ByLayer
62
256
370
-1
100
AcDbCircle
10
25
20
208
40
4
100
AcDbArc
50
180
51
270
0
ARC
5
1AB
100
AcDbEntity
8
0
6
ByLayer
62
256
370
-1
100
AcDbCircle
10
25
20
218
40
4
100
AcDbArc
50
90
51
180
0
LINE
5
1AC
100
AcDbEntity
8
0
6
ByLayer
62
256
370
-1
100
AcDbLine
10
45
20
212
11
48
21
212
0
LINE
5
1AD
100
AcDbEntity
8
0
6
ByLayer
62
256
370
-1
100
AcDbLine
10
45
20
214
11
48
21
214
0
ARC
5
1AE
100
AcDbEntity
8
0
6
ByLayer
62
256
370
-1
100
AcDbCircle
10
25
20
218
40
4
100
AcDbArc
50
360
51
90
0
ARC
5
1AF
100
AcDbEntity
8
0
6
ByLayer
62
256
370
-1
100
AcDbCircle
10
33
20
218
40
4
100
AcDbArc
50
180
51
270
0
ARC
5
1B0
100
AcDbEntity
8
0
6
ByLayer
62
256
370
-1
100
AcDbCircle
10
33
20
218
40
4
100
AcDbArc
50
270
51
360
0
ARC
5
1B1
100
AcDbEntity
8
0
6
ByLayer
62
256
370
-1
100
AcDbCircle
10
41
20
218
40
4
100
AcDbArc
50
90
51
180
0
LINE
5
1B2
100
AcDbEntity
8
0
6
ByLayer
62
256
370
-1
100
AcDbLine
10
48
20
209.5
11
45
21
209.5
0
LINE
5
1B3
100
AcDbEntity
8
0
6
ByLayer
62
256
370
-1
100
AcDbLine
10
45
20
216.5
11
48
21
216.5
0
LINE
5
1B4
100
AcDbEntity
8
0
6
ByLayer
62
256
370
-1
100
AcDbLine
10
51
20
201
11
51
21
210
0
LINE
5
1B5
100
AcDbEntity
8
0
6
ByLayer
62
256
370
-1
100
AcDbLine
10
45
20
209.5
11
45
21
212
0
LINE
5
1B6
100
AcDbEntity
8
0
6
ByLayer
62
256
370
-1
100
AcDbLine
10
45
20
214
11
45
21
216.5
0
LINE
5
1B7
100
AcDbEntity
8
0
6
ByLayer
62
256
370
-1
100
AcDbLine
10
48
20
214
11
48
21
212
0
ARC
5
1B8
100
AcDbEntity
8
0
6
ByLayer
62
256
370
-1
100
AcDbCircle
10
44
20
218
40
4
100
AcDbArc
50
360
51
90
0
LINE
5
1B9
100
AcDbEntity
8
0
6
ByLayer
62
256
370
-1
100
AcDbLine
10
44
20
222
11
41
21
222
0
LINE
5
1BA
100
AcDbEntity
8
0
6
ByLayer
62
256
370
-1
100
AcDbLine
10
48
20
216.5
11
48
21
218
0
ARC
5
1BB
100
AcDbEntity
8
0
6
ByLayer
62
256
370
-1
100
AcDbCircle
10
44
20
208
40
4
100
AcDbArc
50
270
51
0
0
LINE
5
1BC
100
AcDbEntity
8
0
6
ByLayer
62
256
370
-1
100
AcDbLine
10
48
20
209.5
11
48
21
208
0
LINE
5
1BD
100
AcDbEntity
8
0
6
ByLayer
62
256
370
-1
100
AcDbLine
10
25
20
204
11
44
21
204
0
LINE
5
1BE
100
AcDbEntity
8
0
6
ByLayer
62
256
370
-1
100
AcDbLine
10
15
20
230
11
15
21
242
0
LINE
5
1BF
100
AcDbEntity
8
0
6
ByLayer
62
256
370
-1
100
AcDbLine
10
15
20
230
11
10
21
230
0
LINE
5
1C0
100
AcDbEntity
8
0
6
ByLayer
62
256
370
-1
100
AcDbLine
10
15
20
242
11
10
21
242
0
LINE
5
1C1
100
AcDbEntity
8
0
6
ByLayer
62
256
370
-1
100
AcDbLine
10
3.1099
20
239.8997
11
10
21
242
0
ARC
5
1C2
100
AcDbEntity
8
0
6
ByLayer
62
256
370
-1
100
AcDbCircle
10
4
20
236
40
4
100
AcDbArc
50
102.85585945
51
180
0
LINE
5
1C3
100
AcDbEntity
8
0
6
ByLayer
62
256
370
-1
100
AcDbLine
10
3.1100036167
20
232.100268415
11
10
21
230
0
ARC
5
1C4
100
AcDbEntity
8
0
6
ByLayer
62
256
370
-1
100
AcDbCircle
10
4
20
236
40
4
100
AcDbArc
50
180
51
257.14414055
0
LINE
5
1C5
100
AcDbEntity
8
0
6
ByLayer
62
256
370
-1
100
AcDbLine
10
143
20
211
11
143
21
241
0
LINE
5
1C6
100
AcDbEntity
8
0
6
ByLayer
62
256
370
-1
100
AcDbLine
10
151
20
241
11
151
21
211
0
ARC
5
1C7
100
AcDbEntity
8
0
6
ByLayer
62
256
370
-1
100
AcDbCircle
10
147
20
211
40
4
100
AcDbArc
50
180
51
360
0
ARC
5
1C8
100
AcDbEntity
8
0
6
ByLayer
62
256
370
-1
100
AcDbCircle
10
147
20
241
40
4
100
AcDbArc
50
360
51
180
0
CIRCLE
5
1C9
100
AcDbEntity
8
drill_holes
6
ByLayer
62
256
370
-1
100
AcDbCircle
10
136
20
222
40
1.6
0
CIRCLE
5
1CA
100
AcDbEntity
8
drill_holes
6
ByLayer
62
256
370
-1
100
AcDbCircle
10
106
20
222
40
1.6
0
CIRCLE
5
1CB
100
AcDbEntity
8
drill_holes
6
ByLayer
62
256
370
-1
100
AcDbCircle
10
93
20
233
40
1.6
0
CIRCLE
5
1CC
100
AcDbEntity
8
drill_holes
6
ByLayer
62
256
370
-1
100
AcDbCircle
10
109
20
233
40
1.6
0
CIRCLE
5
1CD
100
AcDbEntity
8
drill_holes
6
ByLayer
62
256
370
-1
100
AcDbCircle
10
64.9258047992
20
232.967814389
40
1.6
0
CIRCLE
5
1CE
100
AcDbEntity
8
drill_holes
6
ByLayer
62
256
370
-1
100
AcDbCircle
10
80.9258047992
20
232.967814389
40
1.6
0
CIRCLE
5
1CF
100
AcDbEntity
8
drill_holes
6
ByLayer
62
256
370
-1
100
AcDbCircle
10
37.9258047992
20
232.967814389
40
1.6
0
CIRCLE
5
1D0
100
AcDbEntity
8
drill_holes
6
ByLayer
62
256
370
-1
100
AcDbCircle
10
53.9258047992
20
232.967814389
40
1.6
0
CIRCLE
5
1D1
100
AcDbEntity
8
drill_holes
6
ByLayer
62
256
370
-1
100
AcDbCircle
10
120
20
233
40
1.6
0
CIRCLE
5
1D2
100
AcDbEntity
8
drill_holes
6
ByLayer
62
256
370
-1
100
AcDbCircle
10
136
20
233
40
1.6
0
CIRCLE
5
1D3
100
AcDbEntity
8
drill_holes
6
ByLayer
62
256
370
-1
100
AcDbCircle
10
24
20
241
40
1.6
0
CIRCLE
5
1D4
100
AcDbEntity
8
drill_holes
6
ByLayer
62
256
370
-1
100
AcDbCircle
10
24
20
232.5
40
1.6
0
CIRCLE
5
1D5
100
AcDbEntity
8
drill_holes
6
ByLayer
62
256
370
-1
100
AcDbCircle
10
36
20
193.5
40
1.60312195419
0
CIRCLE
5
1D6
100
AcDbEntity
8
drill_holes
6
ByLayer
62
256
370
-1
100
AcDbCircle
10
20
20
193.5
40
1.60312195419
0
CIRCLE
5
1D7
100
AcDbEntity
8
drill_holes
6
ByLayer
62
256
370
-1
100
AcDbCircle
10
25
20
218
40
1.6
0
CIRCLE
5
1D8
100
AcDbEntity
8
drill_holes
6
ByLayer
62
256
370
-1
100
AcDbCircle
10
25
20
208
40
1.6
0
CIRCLE
5
1D9
100
AcDbEntity
8
drill_holes
6
ByLayer
62
256
370
-1
100
AcDbCircle
10
41
20
218
40
1.6
0
CIRCLE
5
1DA
100
AcDbEntity
8
drill_holes
6
ByLayer
62
256
370
-1
100
AcDbCircle
10
41
20
208
40
1.6
0
CIRCLE
5
1DB
100
AcDbEntity
8
drill_holes
6
ByLayer
62
256
370
-1
100
AcDbCircle
10
4
20
236
40
1.6
0
CIRCLE
5
1DC
100
AcDbEntity
8
drill_holes
6
ByLayer
62
256
370
-1
100
AcDbCircle
10
12.5
20
236
40
1.6
0
CIRCLE
5
1DD
100
AcDbEntity
8
drill_holes
6
ByLayer
62
256
370
-1
100
AcDbCircle
10
147
20
241
40
1.6
0
CIRCLE
5
1DE
100
AcDbEntity
8
drill_holes
6
ByLayer
62
256
370
-1
100
AcDbCircle
10
147
20
211
40
1.6
0
LINE
5
1DF
100
AcDbEntity
8
0
6
ByLayer
62
256
370
-1
100
AcDbLine
10
106
20
288
11
136
21
288
0
LINE
5
1E0
100
AcDbEntity
8
0
6
ByLayer
62
256
370
-1
100
AcDbLine
10
136
20
280
11
106
21
280
0
ARC
5
1E1
100
AcDbEntity
8
0
6
ByLayer
62
256
370
-1
100
AcDbCircle
10
106
20
284
40
4
100
AcDbArc
50
90
51
270
0
ARC
5
1E2
100
AcDbEntity
8
0
6
ByLayer
62
256
370
-1
100
AcDbCircle
10
136
20
284
40
4
100
AcDbArc
50
270
51
90
0
ARC
5
1E3
100
AcDbEntity
8
0
6
ByLayer
62
256
370
-1
100
AcDbCircle
10
93
20
295
40
4
100
AcDbArc
50
90
51
270
0
ARC
5
1E4
100
AcDbEntity
8
0
6
ByLayer
62
256
370
-1
100
AcDbCircle
10
109
20
295
40
4
100
AcDbArc
50
270
51
90
0
LINE
5
1E5
100
AcDbEntity
8
0
6
ByLayer
62
256
370
-1
100
AcDbLine
10
93
20
299
11
109
21
299
0
LINE
5
1E6
100
AcDbEntity
8
0
6
ByLayer
62
256
370
-1
100
AcDbLine
10
109
20
291
11
93
21
291
0
ARC
5
1E7
100
AcDbEntity
8
0
6
ByLayer
62
256
370
-1
100
AcDbCircle
10
64.9258047992
20
294.967814389
40
4
100
AcDbArc
50
90
51
270
0
ARC
5
1E8
100
AcDbEntity
8
0
6
ByLayer
62
256
370
-1
100
AcDbCircle
10
80.9258047992
20
294.967814389
40
4
100
AcDbArc
50
270
51
90
0
LINE
5
1E9
100
AcDbEntity
8
0
6
ByLayer
62
256
370
-1
100
AcDbLine
10
64.9258047992
20
298.967814389
11
80.9258047992
21
298.967814389
0
LINE
5
1EA
100
AcDbEntity
8
0
6
ByLayer
62
256
370
-1
100
AcDbLine
10
80.9258047992
20
290.967814389
11
64.9258047992
21
290.967814389
0
ARC
5
1EB
100
AcDbEntity
8
0
6
ByLayer
62
256
370
-1
100
AcDbCircle
10
37.9258047992
20
294.967814389
40
4
100
AcDbArc
50
90
51
270
0
ARC
5
1EC
100
AcDbEntity
8
0
6
ByLayer
62
256
370
-1
100
AcDbCircle
10
53.9258047992
20
294.967814389
40
4
100
AcDbArc
50
270
51
90
0
LINE
5
1ED
100
AcDbEntity
8
0
6
ByLayer
62
256
370
-1
100
AcDbLine
10
37.9258047992
20
298.967814389
11
53.9258047992
21
298.967814389
0
LINE
5
1EE
100
AcDbEntity
8
0
6
ByLayer
62
256
370
-1
100
AcDbLine
10
53.9258047992
20
290.967814389
11
37.9258047992
21
290.967814389
0
ARC
5
1EF
100
AcDbEntity
8
0
6
ByLayer
62
256
370
-1
100
AcDbCircle
10
120
20
295
40
4
100
AcDbArc
50
90
51
270
0
ARC
5
1F0
100
AcDbEntity
8
0
6
ByLayer
62
256
370
-1
100
AcDbCircle
10
136
20
295
40
4
100
AcDbArc
50
270
51
90
0
LINE
5
1F1
100
AcDbEntity
8
0
6
ByLayer
62
256
370
-1
100
AcDbLine
10
120
20
299
11
136
21
299
0
LINE
5
1F2
100
AcDbEntity
8
0
6
ByLayer
62
256
370
-1
100
AcDbLine
10
136
20
291
11
120
21
291
0
LINE
5
1F3
100
AcDbEntity
8
0
6
ByLayer
62
256
370
-1
100
AcDbLine
10
18
20
292
11
30
21
292
0
LINE
5
1F4
100
AcDbEntity
8
0
6
ByLayer
62
256
370
-1
100
AcDbLine
10
18
20
292
11
18
21
297
0
LINE
5
1F5
100
AcDbEntity
8
0
6
ByLayer
62
256
370
-1
100
AcDbLine
10
30
20
292
11
30
21
297
0
LINE
5
1F6
100
AcDbEntity
8
0
6
ByLayer
62
256
370
-1
100
AcDbLine
10
27.8997
20
303.8901
11
30
21
297
0
ARC
5
1F7
100
AcDbEntity
8
0
6
ByLayer
62
256
370
-1
100
AcDbCircle
10
24
20
303
40
4
100
AcDbArc
50
12.8558594496
51
90
0
LINE
5
1F8
100
AcDbEntity
8
0
6
ByLayer
62
256
370
-1
100
AcDbLine
10
20.1002684147
20
303.889996383
11
18
21
297
0
ARC
5
1F9
100
AcDbEntity
8
0
6
ByLayer
62
256
370
-1
100
AcDbCircle
10
24
20
303
40
4
100
AcDbArc
50
90
51
167.14414055
0
LINE
5
1FA
100
AcDbEntity
8
0
6
ByLayer
62
256
370
-1
100
AcDbLine
10
11
20
263
11
51
21
263
0
LINE
5
1FB
100
AcDbEntity
8
0
6
ByLayer
62
256
370
-1
100
AcDbLine
10
11
20
263
11
11
21
288
0
LINE
5
1FC
100
AcDbEntity
8
0
6
ByLayer
62
256
370
-1
100
AcDbLine
10
63
20
288
11
51
21
288
0
LINE
5
1FD
100
AcDbEntity
8
0
6
ByLayer
62
256
370
-1
100
AcDbLine
10
151
20
253
11
151
21
264
0
LINE
5
1FE
100
AcDbEntity
8
0
6
ByLayer
62
256
370
-1
100
AcDbLine
10
101
20
248
11
151
21
253
0
LINE
5
1FF
100
AcDbEntity
8
0
6
ByLayer
62
256
370
-1
100
AcDbLine
10
151
20
264
11
63
21
288
0
ARC
5
200
100
AcDbEntity
8
0
6
ByLayer
62
256
370
-1
100
AcDbCircle
10
43.5
20
268
40
42.5
100
AcDbArc
50
151.927513064
51
208.072486936
0
LINE
5
201
100
AcDbEntity
8
0
6
ByLayer
62
256
370
-1
100
AcDbLine
10
6
20
248
11
101
21
248
0
LINE
5
202
100
AcDbEntity
8
0
6
ByLayer
62
256
370
-1
100
AcDbLine
10
6
20
288
11
11
21
288
0
LINE
5
203
100
AcDbEntity
8
0
6
ByLayer
62
256
370
-1
100
AcDbLine
10
51
20
279
11
54
21
279
0
LINE
5
204
100
AcDbEntity
8
0
6
ByLayer
62
256
370
-1
100
AcDbLine
10
54
20
272
11
51
21
272
0
LINE
5
205
100
AcDbEntity
8
0
6
ByLayer
62
256
370
-1
100
AcDbLine
10
51
20
279
11
51
21
288
0
LINE
5
206
100
AcDbEntity
8
0
6
ByLayer
62
256
370
-1
100
AcDbLine
10
100
20
258
11
63
21
258
0
LINE
5
207
100
AcDbEntity
8
0
6
ByLayer
62
256
370
-1
100
AcDbLine
10
63
20
258
11
63
21
278
0
LINE
5
208
100
AcDbEntity
8
0
6
ByLayer
62
256
370
-1
100
AcDbLine
10
126.585365854
20
260.658536585
11
63
21
278
0
LINE
5
209
100
AcDbEntity
8
0
6
ByLayer
62
256
370
-1
100
AcDbLine
10
100
20
258
11
126.585365854
21
260.658536585
0
LINE
5
20A
100
AcDbEntity
8
0
6
ByLayer
62
256
370
-1
100
AcDbLine
10
51
20
274.5
11
54
21
274.5
0
LINE
5
20B
100
AcDbEntity
8
0
6
ByLayer
62
256
370
-1
100
AcDbLine
10
51
20
276.5
11
54
21
276.5
0
LINE
5
20C
100
AcDbEntity
8
0
6
ByLayer
62
256
370
-1
100
AcDbLine
10
54
20
279
11
54
21
276.5
0
LINE
5
20D
100
AcDbEntity
8
0
6
ByLayer
62
256
370
-1
100
AcDbLine
10
54
20
274.5
11
54
21
272
0
LINE
5
20E
100
AcDbEntity
8
0
6
ByLayer
62
256
370
-1
100
AcDbLine
10
51
20
274.5
11
51
21
276.5
0
LINE
5
20F
100
AcDbEntity
8
0
6
ByLayer
62
256
370
-1
100
AcDbLine
10
21
20
280
11
21
21
270
0
ARC
5
210
100
AcDbEntity
8
0
6
ByLayer
62
256
370
-1
100
AcDbCircle
10
25
20
270
40
4
100
AcDbArc
50
180
51
270
0
ARC
5
211
100
AcDbEntity
8
0
6
ByLayer
62
256
370
-1
100
AcDbCircle
10
25
20
280
40
4
100
AcDbArc
50
90
51
180
0
LINE
5
212
100
AcDbEntity
8
0
6
ByLayer
62
256
370
-1
100
AcDbLine
10
45
20
274
11
48
21
274
0
LINE
5
213
100
AcDbEntity
8
0
6
ByLayer
62
256
370
-1
100
AcDbLine
10
45
20
276
11
48
21
276
0
ARC
5
214
100
AcDbEntity
8
0
6
ByLayer
62
256
370
-1
100
AcDbCircle
10
25
20
280
40
4
100
AcDbArc
50
360
51
90
0
ARC
5
215
100
AcDbEntity
8
0
6
ByLayer
62
256
370
-1
100
AcDbCircle
10
33
20
280
40
4
100
AcDbArc
50
180
51
270
0
ARC
5
216
100
AcDbEntity
8
0
6
ByLayer
62
256
370
-1
100
AcDbCircle
10
33
20
280
40
4
100
AcDbArc
50
270
51
360
0
ARC
5
217
100
AcDbEntity
8
0
6
ByLayer
62
256
370
-1
100
AcDbCircle
10
41
20
280
40
4
100
AcDbArc
50
90
51
180
0
LINE
5
218
100
AcDbEntity
8
0
6
ByLayer
62
256
370
-1
100
AcDbLine
10
48
20
271.5
11
45
21
271.5
0
LINE
5
219
100
AcDbEntity
8
0
6
ByLayer
62
256
370
-1
100
AcDbLine
10
45
20
278.5
11
48
21
278.5
0
LINE
5
21A
100
AcDbEntity
8
0
6
ByLayer
62
256
370
-1
100
AcDbLine
10
51
20
263
11
51
21
272
0
LINE
5
21B
100
AcDbEntity
8
0
6
ByLayer
62
256
370
-1
100
AcDbLine
10
45
20
271.5
11
45
21
274
0
LINE
5
21C
100
AcDbEntity
8
0
6
ByLayer
62
256
370
-1
100
AcDbLine
10
45
20
276
11
45
21
278.5
0
LINE
5
21D
100
AcDbEntity
8
0
6
ByLayer
62
256
370
-1
100
AcDbLine
10
48
20
276
11
48
21
274
0
ARC
5
21E
100
AcDbEntity
8
0
6
ByLayer
62
256
370
-1
100
AcDbCircle
10
44
20
280
40
4
100
AcDbArc
50
360
51
90
0
LINE
5
21F
100
AcDbEntity
8
0
6
ByLayer
62
256
370
-1
100
AcDbLine
10
44
20
284
11
41
21
284
0
LINE
5
220
100
AcDbEntity
8
0
6
ByLayer
62
256
370
-1
100
AcDbLine
10
48
20
278.5
11
48
21
280
0
ARC
5
221
100
AcDbEntity
8
0
6
ByLayer
62
256
370
-1
100
AcDbCircle
10
44
20
270
40
4
100
AcDbArc
50
270
51
0
0
LINE
5
222
100
AcDbEntity
8
0
6
ByLayer
62
256
370
-1
100
AcDbLine
10
48
20
271.5
11
48
21
270
0
LINE
5
223
100
AcDbEntity
8
0
6
ByLayer
62
256
370
-1
100
AcDbLine
10
25
20
266
11
44
21
266
0
LINE
5
224
100
AcDbEntity
8
0
6
ByLayer
62
256
370
-1
100
AcDbLine
10
15
20
292
11
15
21
304
0
LINE
5
225
100
AcDbEntity
8
0
6
ByLayer
62
256
370
-1
100
AcDbLine
10
15
20
292
11
10
21
292
0
LINE
5
226
100
AcDbEntity
8
0
6
ByLayer
62
256
370
-1
100
AcDbLine
10
15
20
304
11
10
21
304
0
LINE
5
227
100
AcDbEntity
8
0
6
ByLayer
62
256
370
-1
100
AcDbLine
10
3.1099
20
301.8997
11
10
21
304
0
ARC
5
228
100
AcDbEntity
8
0
6
ByLayer
62
256
370
-1
100
AcDbCircle
10
4
20
298
40
4
100
AcDbArc
50
102.85585945
51
180
0
LINE
5
229
100
AcDbEntity
8
0
6
ByLayer
62
256
370
-1
100
AcDbLine
10
3.1100036167
20
294.100268415
11
10
21
292
0
ARC
5
22A
100
AcDbEntity
8
0
6
ByLayer
62
256
370
-1
100
AcDbCircle
10
4
20
298
40
4
100
AcDbArc
50
180
51
257.14414055
0
LINE
5
22B
100
AcDbEntity
8
0
6
ByLayer
62
256
370
-1
100
AcDbLine
10
143
20
273
11
143
21
303
0
LINE
5
22C
100
AcDbEntity
8
0
6
ByLayer
62
256
370
-1
100
AcDbLine
10
151
20
303
11
151
21
273
0
ARC
5
22D
100
AcDbEntity
8
0
6
ByLayer
62
256
370
-1
100
AcDbCircle
10
147
20
273
40
4
100
AcDbArc
50
180
51
360
0
ARC
5
22E
100
AcDbEntity
8
0
6
ByLayer
62
256
370
-1
100
AcDbCircle
10
147
20
303
40
4
100
AcDbArc
50
360
51
180
0
CIRCLE
5
22F
100
AcDbEntity
8
drill_holes
6
ByLayer
62
256
370
-1
100
AcDbCircle
10
136
20
284
40
1.6
0
CIRCLE
5
230
100
AcDbEntity
8
drill_holes
6
ByLayer
62
256
370
-1
100
AcDbCircle
10
106
20
284
40
1.6
0
CIRCLE
5
231
100
AcDbEntity
8
drill_holes
6
ByLayer
62
256
370
-1
100
AcDbCircle
10
93
20
295
40
1.6
0
CIRCLE
5
232
100
AcDbEntity
8
drill_holes
6
ByLayer
62
256
370
-1
100
AcDbCircle
10
109
20
295
40
1.6
0
CIRCLE
5
233
100
AcDbEntity
8
drill_holes
6
ByLayer
62
256
370
-1
100
AcDbCircle
10
64.9258047992
20
294.967814389
40
1.6
0
CIRCLE
5
234
100
AcDbEntity
8
drill_holes
6
ByLayer
62
256
370
-1
100
AcDbCircle
10
80.9258047992
20
294.967814389
40
1.6
0
CIRCLE
5
235
100
AcDbEntity
8
drill_holes
6
ByLayer
62
256
370
-1
100
AcDbCircle
10
37.9258047992
20
294.967814389
40
1.6
0
CIRCLE
5
236
100
AcDbEntity
8
drill_holes
6
ByLayer
62
256
370
-1
100
AcDbCircle
10
53.9258047992
20
294.967814389
40
1.6
0
CIRCLE
5
237
100
AcDbEntity
8
drill_holes
6
ByLayer
62
256
370
-1
100
AcDbCircle
10
120
20
295
40
1.6
0
CIRCLE
5
238
100
AcDbEntity
8
drill_holes
6
ByLayer
62
256
370
-1
100
AcDbCircle
10
136
20
295
40
1.6
0
CIRCLE
5
239
100
AcDbEntity
8
drill_holes
6
ByLayer
62
256
370
-1
100
AcDbCircle
10
24
20
303
40
1.6
0
CIRCLE
5
23A
100
AcDbEntity
8
drill_holes
6
ByLayer
62
256
370
-1
100
AcDbCircle
10
24
20
294.5
40
1.6
0
CIRCLE
5
23B
100
AcDbEntity
8
drill_holes
6
ByLayer
62
256
370
-1
100
AcDbCircle
10
36
20
255.5
40
1.60312195419
0
CIRCLE
5
23C
100
AcDbEntity
8
drill_holes
6
ByLayer
62
256
370
-1
100
AcDbCircle
10
20
20
255.5
40
1.60312195419
0
CIRCLE
5
23D
100
AcDbEntity
8
drill_holes
6
ByLayer
62
256
370
-1
100
AcDbCircle
10
25
20
280
40
1.6
0
CIRCLE
5
23E
100
AcDbEntity
8
drill_holes
6
ByLayer
62
256
370
-1
100
AcDbCircle
10
25
20
270
40
1.6
0
CIRCLE
5
23F
100
AcDbEntity
8
drill_holes
6
ByLayer
62
256
370
-1
100
AcDbCircle
10
41
20
280
40
1.6
0
CIRCLE
5
240
100
AcDbEntity
8
drill_holes
6
ByLayer
62
256
370
-1
100
AcDbCircle
10
41
20
270
40
1.6
0
CIRCLE
5
241
100
AcDbEntity
8
drill_holes
6
ByLayer
62
256
370
-1
100
AcDbCircle
10
4
20
298
40
1.6
0
CIRCLE
5
242
100
AcDbEntity
8
drill_holes
6
ByLayer
62
256
370
-1
100
AcDbCircle
10
12.5
20
298
40
1.6
0
CIRCLE
5
243
100
AcDbEntity
8
drill_holes
6
ByLayer
62
256
370
-1
100
AcDbCircle
10
147
20
303
40
1.6
0
CIRCLE
5
244
100
AcDbEntity
8
drill_holes
6
ByLayer
62
256
370
-1
100
AcDbCircle
10
147
20
273
40
1.6
0
LINE
5
245
100
AcDbEntity
8
0
6
ByLayer
62
256
370
-1
100
AcDbLine
10
106
20
350
11
136
21
350
0
LINE
5
246
100
AcDbEntity
8
0
6
ByLayer
62
256
370
-1
100
AcDbLine
10
136
20
342
11
106
21
342
0
ARC
5
247
100
AcDbEntity
8
0
6
ByLayer
62
256
370
-1
100
AcDbCircle
10
106
20
346
40
4
100
AcDbArc
50
90
51
270
0
ARC
5
248
100
AcDbEntity
8
0
6
ByLayer
62
256
370
-1
100
AcDbCircle
10
136
20
346
40
4
100
AcDbArc
50
270
51
90
0
ARC
5
249
100
AcDbEntity
8
0
6
ByLayer
62
256
370
-1
100
AcDbCircle
10
93
20
357
40
4
100
AcDbArc
50
90
51
270
0
ARC
5
24A
100
AcDbEntity
8
0
6
ByLayer
62
256
370
-1
100
AcDbCircle
10
109
20
357
40
4
100
AcDbArc
50
270
51
90
0
LINE
5
24B
100
AcDbEntity
8
0
6
ByLayer
62
256
370
-1
100
AcDbLine
10
93
20
361
11
109
21
361
0
LINE
5
24C
100
AcDbEntity
8
0
6
ByLayer
62
256
370
-1
100
AcDbLine
10
109
20
353
11
93
21
353
0
ARC
5
24D
100
AcDbEntity
8
0
6
ByLayer
62
256
370
-1
100
AcDbCircle
10
64.9258047992
20
356.967814389
40
4
100
AcDbArc
50
90
51
270
0
ARC
5
24E
100
AcDbEntity
8
0
6
ByLayer
62
256
370
-1
100
AcDbCircle
10
80.9258047992
20
356.967814389
40
4
100
AcDbArc
50
270
51
90
0
LINE
5
24F
100
AcDbEntity
8
0
6
ByLayer
62
256
370
-1
100
AcDbLine
10
64.9258047992
20
360.967814389
11
80.9258047992
21
360.967814389
0
LINE
5
250
100
AcDbEntity
8
0
6
ByLayer
62
256
370
-1
100
AcDbLine
10
80.9258047992
20
352.967814389
11
64.9258047992
21
352.967814389
0
ARC
5
251
100
AcDbEntity
8
0
6
ByLayer
62
256
370
-1
100
AcDbCircle
10
37.9258047992
20
356.967814389
40
4
100
AcDbArc
50
90
51
270
0
ARC
5
252
100
AcDbEntity
8
0
6
ByLayer
62
256
370
-1
100
AcDbCircle
10
53.9258047992
20
356.967814389
40
4
100
AcDbArc
50
270
51
90
0
LINE
5
253
100
AcDbEntity
8
0
6
ByLayer
62
256
370
-1
100
AcDbLine
10
37.9258047992
20
360.967814389
11
53.9258047992
21
360.967814389
0
LINE
5
254
100
AcDbEntity
8
0
6
ByLayer
62
256
370
-1
100
AcDbLine
10
53.9258047992
20
352.967814389
11
37.9258047992
21
352.967814389
0
ARC
5
255
100
AcDbEntity
8
0
6
ByLayer
62
256
370
-1
100
AcDbCircle
10
120
20
357
40
4
100
AcDbArc
50
90
51
270
0
ARC
5
256
100
AcDbEntity
8
0
6
ByLayer
62
256
370
-1
100
AcDbCircle
10
136
20
357
40
4
100
AcDbArc
50
270
51
90
0
LINE
5
257
100
AcDbEntity
8
0
6
ByLayer
62
256
370
-1
100
AcDbLine
10
120
20
361
11
136
21
361
0
LINE
5
258
100
AcDbEntity
8
0
6
ByLayer
62
256
370
-1
100
AcDbLine
10
136
20
353
11
120
21
353
0
LINE
5
259
100
AcDbEntity
8
0
6
ByLayer
62
256
370
-1
100
AcDbLine
10
18
20
354
11
30
21
354
0
LINE
5
25A
100
AcDbEntity
8
0
6
ByLayer
62
256
370
-1
100
AcDbLine
10
18
20
354
11
18
21
359
0
LINE
5
25B
100
AcDbEntity
8
0
6
ByLayer
62
256
370
-1
100
AcDbLine
10
30
20
354
11
30
21
359
0
LINE
5
25C
100
AcDbEntity
8
0
6
ByLayer
62
256
370
-1
100
AcDbLine
10
27.8997
20
365.8901
11
30
21
359
0
ARC
5
25D
100
AcDbEntity
8
0
6
ByLayer
62
256
370
-1
100
AcDbCircle
10
24
20
365
40
4
100
AcDbArc
50
12.8558594496
51
90
0
LINE
5
25E
100
AcDbEntity
8
0
6
ByLayer
62
256
370
-1
100
AcDbLine
10
20.1002684147
20
365.889996383
11
18
21
359
0
ARC
5
25F
100
AcDbEntity
8
0
6
ByLayer
62
256
370
-1
100
AcDbCircle
10
24
20
365
40
4
100
AcDbArc
50
90
51
167.14414055
0
LINE
5
260
100
AcDbEntity
8
0
6
ByLayer
62
256
370
-1
100
AcDbLine
10
11
20
325
11
51
21
325
0
LINE
5
261
100
AcDbEntity
8
0
6
ByLayer
62
256
370
-1
100
AcDbLine
10
11
20
325
11
11
21
350
0
LINE
5
262
100
AcDbEntity
8
0
6
ByLayer
62
256
370
-1
100
AcDbLine
10
63
20
350
11
51
21
350
0
LINE
5
263
100
AcDbEntity
8
0
6
ByLayer
62
256
370
-1
100
AcDbLine
10
151
20
315
11
151
21
326
0
LINE
5
264
100
AcDbEntity
8
0
6
ByLayer
62
256
370
-1
100
AcDbLine
10
101
20
310
11
151
21
315
0
LINE
5
265
100
AcDbEntity
8
0
6
ByLayer
62
256
370
-1
100
AcDbLine
10
151
20
326
11
63
21
350
0
ARC
5
266
100
AcDbEntity
8
0
6
ByLayer
62
256
370
-1
100
AcDbCircle
10
43.5
20
330
40
42.5
100
AcDbArc
50
151.927513064
51
208.072486936
0
LINE
5
267
100
AcDbEntity
8
0
6
ByLayer
62
256
370
-1
100
AcDbLine
10
6
20
310
11
101
21
310
0
LINE
5
268
100
AcDbEntity
8
0
6
ByLayer
62
256
370
-1
100
AcDbLine
10
6
20
350
11
11
21
350
0
LINE
5
269
100
AcDbEntity
8
0
6
ByLayer
62
256
370
-1
100
AcDbLine
10
51
20
341
11
54
21
341
0
LINE
5
26A
100
AcDbEntity
8
0
6
ByLayer
62
256
370
-1
100
AcDbLine
10
54
20
334
11
51
21
334
0
LINE
5
26B
100
AcDbEntity
8
0
6
ByLayer
62
256
370
-1
100
AcDbLine
10
51
20
341
11
51
21
350
0
LINE
5
26C
100
AcDbEntity
8
0
6
ByLayer
62
256
370
-1
100
AcDbLine
10
100
20
320
11
63
21
320
0
LINE
5
26D
100
AcDbEntity
8
0
6
ByLayer
62
256
370
-1
100
AcDbLine
10
63
20
320
11
63
21
340
0
LINE
5
26E
100
AcDbEntity
8
0
6
ByLayer
62
256
370
-1
100
AcDbLine
10
126.585365854
20
322.658536585
11
63
21
340
0
LINE
5
26F
100
AcDbEntity
8
0
6
ByLayer
62
256
370
-1
100
AcDbLine
10
100
20
320
11
126.585365854
21
322.658536585
0
LINE
5
270
100
AcDbEntity
8
0
6
ByLayer
62
256
370
-1
100
AcDbLine
10
51
20
336.5
11
54
21
336.5
0
LINE
5
271
100
AcDbEntity
8
0
6
ByLayer
62
256
370
-1
100
AcDbLine
10
51
20
338.5
11
54
21
338.5
0
LINE
5
272
100
AcDbEntity
8
0
6
ByLayer
62
256
370
-1
100
AcDbLine
10
54
20
341
11
54
21
338.5
0
LINE
5
273
100
AcDbEntity
8
0
6
ByLayer
62
256
370
-1
100
AcDbLine
10
54
20
336.5
11
54
21
334
0
LINE
5
274
100
AcDbEntity
8
0
6
ByLayer
62
256
370
-1
100
AcDbLine
10
51
20
336.5
11
51
21
338.5
0
LINE
5
275
100
AcDbEntity
8
0
6
ByLayer
62
256
370
-1
100
AcDbLine
10
21
20
342
11
21
21
332
0
ARC
5
276
100
AcDbEntity
8
0
6
ByLayer
62
256
370
-1
100
AcDbCircle
10
25
20
332
40
4
100
AcDbArc
50
180
51
270
0
ARC
5
277
100
AcDbEntity
8
0
6
ByLayer
62
256
370
-1
100
AcDbCircle
10
25
20
342
40
4
100
AcDbArc
50
90
51
180
0
LINE
5
278
100
AcDbEntity
8
0
6
ByLayer
62
256
370
-1
100
AcDbLine
10
45
20
336
11
48
21
336
0
LINE
5
279
100
AcDbEntity
8
0
6
ByLayer
62
256
370
-1
100
AcDbLine
10
45
20
338
11
48
21
338
0
ARC
5
27A
100
AcDbEntity
8
0
6
ByLayer
62
256
370
-1
100
AcDbCircle
10
25
20
342
40
4
100
AcDbArc
50
360
51
90
0
ARC
5
27B
100
AcDbEntity
8
0
6
ByLayer
62
256
370
-1
100
AcDbCircle
10
33
20
342
40
4
100
AcDbArc
50
180
51
270
0
ARC
5
27C
100
AcDbEntity
8
0
6
ByLayer
62
256
370
-1
100
AcDbCircle
10
33
20
342
40
4
100
AcDbArc
50
270
51
360
0
ARC
5
27D
100
AcDbEntity
8
0
6
ByLayer
62
256
370
-1
100
AcDbCircle
10
41
20
342
40
4
100
AcDbArc
50
90
51
180
0
LINE
5
27E
100
AcDbEntity
8
0
6
ByLayer
62
256
370
-1
100
AcDbLine
10
48
20
333.5
11
45
21
333.5
0
LINE
5
27F
100
AcDbEntity
8
0
6
ByLayer
62
256
370
-1
100
AcDbLine
10
45
20
340.5
11
48
21
340.5
0
LINE
5
280
100
AcDbEntity
8
0
6
ByLayer
62
256
370
-1
100
AcDbLine
10
51
20
325
11
51
21
334
0
LINE
5
281
100
AcDbEntity
8
0
6
ByLayer
62
256
370
-1
100
AcDbLine
10
45
20
333.5
11
45
21
336
0
LINE
5
282
100
AcDbEntity
8
0
6
ByLayer
62
256
370
-1
100
AcDbLine
10
45
20
338
11
45
21
340.5
0
LINE
5
283
100
AcDbEntity
8
0
6
ByLayer
62
256
370
-1
100
AcDbLine
10
48
20
338
11
48
21
336
0
ARC
5
284
100
AcDbEntity
8
0
6
ByLayer
62
256
370
-1
100
AcDbCircle
10
44
20
342
40
4
100
AcDbArc
50
360
51
90
0
LINE
5
285
100
AcDbEntity
8
0
6
ByLayer
62
256
370
-1
100
AcDbLine
10
44
20
346
11
41
21
346
0
LINE
5
286
100
AcDbEntity
8
0
6
ByLayer
62
256
370
-1
100
AcDbLine
10
48
20
340.5
11
48
21
342
0
ARC
5
287
100
AcDbEntity
8
0
6
ByLayer
62
256
370
-1
100
AcDbCircle
10
44
20
332
40
4
100
AcDbArc
50
270
51
0
0
LINE
5
288
100
AcDbEntity
8
0
6
ByLayer
62
256
370
-1
100
AcDbLine
10
48
20
333.5
11
48
21
332
0
LINE
5
289
100
AcDbEntity
8
0
6
ByLayer
62
256
370
-1
100
AcDbLine
10
25
20
328
11
44
21
328
0
LINE
5
28A
100
AcDbEntity
8
0
6
ByLayer
62
256
370
-1
100
AcDbLine
10
15
20
354
11
15
21
366
0
LINE
5
28B
100
AcDbEntity
8
0
6
ByLayer
62
256
370
-1
100
AcDbLine
10
15
20
354
11
10
21
354
0
LINE
5
28C
100
AcDbEntity
8
0
6
ByLayer
62
256
370
-1
100
AcDbLine
10
15
20
366
11
10
21
366
0
LINE
5
28D
100
AcDbEntity
8
0
6
ByLayer
62
256
370
-1
100
AcDbLine
10
3.1099
20
363.8997
11
10
21
366
0
ARC
5
28E
100
AcDbEntity
8
0
6
ByLayer
62
256
370
-1
100
AcDbCircle
10
4
20
360
40
4
100
AcDbArc
50
102.85585945
51
180
0
LINE
5
28F
100
AcDbEntity
8
0
6
ByLayer
62
256
370
-1
100
AcDbLine
10
3.1100036167
20
356.100268415
11
10
21
354
0
ARC
5
290
100
AcDbEntity
8
0
6
ByLayer
62
256
370
-1
100
AcDbCircle
10
4
20
360
40
4
100
AcDbArc
50
180
51
257.14414055
0
LINE
5
291
100
AcDbEntity
8
0
6
ByLayer
62
256
370
-1
100
AcDbLine
10
143
20
335
11
143
21
365
0
LINE
5
292
100
AcDbEntity
8
0
6
ByLayer
62
256
370
-1
100
AcDbLine
10
151
20
365
11
151
21
335
0
ARC
5
293
100
AcDbEntity
8
0
6
ByLayer
62
256
370
-1
100
AcDbCircle
10
147
20
335
40
4
100
AcDbArc
50
180
51
360
0
ARC
5
294
100
AcDbEntity
8
0
6
ByLayer
62
256
370
-1
100
AcDbCircle
10
147
20
365
40
4
100
AcDbArc
50
360
51
180
0
CIRCLE
5
295
100
AcDbEntity
8
drill_holes
6
ByLayer
62
256
370
-1
100
AcDbCircle
10
136
20
346
40
1.6
0
CIRCLE
5
296
100
AcDbEntity
8
drill_holes
6
ByLayer
62
256
370
-1
100
AcDbCircle
10
106
20
346
40
1.6
0
CIRCLE
5
297
100
AcDbEntity
8
drill_holes
6
ByLayer
62
256
370
-1
100
AcDbCircle
10
93
20
357
40
1.6
0
CIRCLE
5
298
100
AcDbEntity
8
drill_holes
6
ByLayer
62
256
370
-1
100
AcDbCircle
10
109
20
357
40
1.6
0
CIRCLE
5
299
100
AcDbEntity
8
drill_holes
6
ByLayer
62
256
370
-1
100
AcDbCircle
10
64.9258047992
20
356.967814389
40
1.6
0
CIRCLE
5
29A
100
AcDbEntity
8
drill_holes
6
ByLayer
62
256
370
-1
100
AcDbCircle
10
80.9258047992
20
356.967814389
40
1.6
0
CIRCLE
5
29B
100
AcDbEntity
8
drill_holes
6
ByLayer
62
256
370
-1
100
AcDbCircle
10
37.9258047992
20
356.967814389
40
1.6
0
CIRCLE
5
29C
100
AcDbEntity
8
drill_holes
6
ByLayer
62
256
370
-1
100
AcDbCircle
10
53.9258047992
20
356.967814389
40
1.6
0
CIRCLE
5
29D
100
AcDbEntity
8
drill_holes
6
ByLayer
62
256
370
-1
100
AcDbCircle
10
120
20
357
40
1.6
0
CIRCLE
5
29E
100
AcDbEntity
8
drill_holes
6
ByLayer
62
256
370
-1
100
AcDbCircle
10
136
20
357
40
1.6
0
CIRCLE
5
29F
100
AcDbEntity
8
drill_holes
6
ByLayer
62
256
370
-1
100
AcDbCircle
10
24
20
365
40
1.6
0
CIRCLE
5
2A0
100
AcDbEntity
8
drill_holes
6
ByLayer
62
256
370
-1
100
AcDbCircle
10
24
20
356.5
40
1.6
0
CIRCLE
5
2A1
100
AcDbEntity
8
drill_holes
6
ByLayer
62
256
370
-1
100
AcDbCircle
10
36
20
317.5
40
1.60312195419
0
CIRCLE
5
2A2
100
AcDbEntity
8
drill_holes
6
ByLayer
62
256
370
-1
100
AcDbCircle
10
20
20
317.5
40
1.60312195419
0
CIRCLE
5
2A3
100
AcDbEntity
8
drill_holes
6
ByLayer
62
256
370
-1
100
AcDbCircle
10
25
20
342
40
1.6
0
CIRCLE
5
2A4
100
AcDbEntity
8
drill_holes
6
ByLayer
62
256
370
-1
100
AcDbCircle
10
25
20
332
40
1.6
0
CIRCLE
5
2A5
100
AcDbEntity
8
drill_holes
6
ByLayer
62
256
370
-1
100
AcDbCircle
10
41
20
342
40
1.6
0
CIRCLE
5
2A6
100
AcDbEntity
8
drill_holes
6
ByLayer
62
256
370
-1
100
AcDbCircle
10
41
20
332
40
1.6
0
CIRCLE
5
2A7
100
AcDbEntity
8
drill_holes
6
ByLayer
62
256
370
-1
100
AcDbCircle
10
4
20
360
40
1.6
0
CIRCLE
5
2A8
100
AcDbEntity
8
drill_holes
6
ByLayer
62
256
370
-1
100
AcDbCircle
10
12.5
20
360
40
1.6
0
CIRCLE
5
2A9
100
AcDbEntity
8
drill_holes
6
ByLayer
62
256
370
-1
100
AcDbCircle
10
147
20
365
40
1.6
0
CIRCLE
5
2AA
100
AcDbEntity
8
drill_holes
6
ByLayer
62
256
370
-1
100
AcDbCircle
10
147
20
335
40
1.6
0
ENDSEC
0
SECTION
2
OBJECTS
0
DICTIONARY
5
C
330
0
100
AcDbDictionary
281
1
3
ACAD_GROUP
350
D
0
DICTIONARY
5
D
330
C
100
AcDbDictionary
281
1
0
ENDSEC
0
EOF
